<?xml version="1.0" standalone="no"?>
<!DOCTYPE svg PUBLIC "-//W3C//DTD SVG 1.1//EN" "http://www.w3.org/Graphics/SVG/1.1/DTD/svg11.dtd" >
<svg xmlns="http://www.w3.org/2000/svg">
<metadata>Generated by IcoMoon</metadata>
<defs>
<font id="font-shweb" horiz-adv-x="1024">
<font-face units-per-em="1024" ascent="960" descent="-64" />
<missing-glyph horiz-adv-x="1024" />
<glyph unicode="&#x20;" horiz-adv-x="512" d="" />
<glyph unicode="&#xe900;" glyph-name="accesssys" d="M276.8 661.9c0-61.8 50.2-112 112-112s112 50.2 112 112-50.2 112-112 112-112-50.3-112-112zM444.8 661.9c0-30.9-25.1-56-56-56s-56 25.1-56 56 25.1 56 56 56 56-25.2 56-56zM678.1 84c-9.8 0-19.3-4.9-24-13.5-4.8-8.7-14-14.5-24.6-14.5h-481.5c-15.4 0-28 12.5-28 28v728c0 15.4 12.6 28 28 28h481.6c15.5 0 28-12.6 28-28v-291.6c0-15.5 12.5-28 28-28s28 12.5 28 28v291.6c0 46.2-37.8 84-84 84h-481.6c-46.2 0-84-37.8-84-84v-728c0-46.2 37.8-84 84-84h481.6c31.4 0 58.9 17.4 73.3 43 10.3 18.3-3.7 41-24.8 41zM848 457h-280c-61.8 0-112-50.2-112-112v-112c0-61.8 50.2-112 112-112h280c61.8 0 112 50.2 112 112v112c0 61.7-50.2 112-112 112zM568 401h280c30.9 0 56-25.1 56-56v-28h-392v28c0 30.8 25.1 56 56 56zM848 177h-280c-30.9 0-56 25.1-56 56v28h392v-28c0-30.9-25.1-56-56-56z" />
<glyph unicode="&#xe901;" glyph-name="aircondition" horiz-adv-x="1025" d="M1002.693 468.27h-131.269l102.311 85.397c9.027 7.536 10.203 20.918 2.629 29.899-7.571 8.977-21.028 10.149-30.055 2.613l-130.742-109.128c-2.75-2.297-3.328-5.692-4.594-8.782h-261.952l130.804 225.369c3.254-0.406 6.414-1.613 9.707-0.422l160.379 58.064c11.070 4.012 16.782 16.188 12.75 27.204-4.031 11.012-16.27 16.692-27.345 12.684l-125.193-45.328 65.795 113.358c5.891 10.149 2.394 23.13-7.809 28.989s-23.25 2.383-29.141-7.77l-65.63-113.077-23.192 130.831c-2.047 11.543-13.109 19.25-24.715 17.215-11.602-2.035-19.352-13.044-17.305-24.587l29.637-167.191c0.656-3.695 2.461-6.769 4.687-9.484l-130.315-224.53-130.124 224.189c2.156 2.684 3.898 5.711 4.539 9.332l29.637 167.191c2.047 11.544-5.699 22.552-17.305 24.587-11.602 2.035-22.669-5.672-24.715-17.215l-23.133-130.518-65.794 113.358c-5.891 10.153-18.938 13.629-29.141 7.77s-13.7-18.836-7.809-28.989l65.63-113.077-125.499 45.439c-11.070 4.008-23.313-1.672-27.341-12.684-4.031-11.016 1.68-23.192 12.75-27.204l160.375-58.064c3.375-1.222 6.617-0.020 9.941 0.433l131.097-225.872h-260.225c-1.266 3.090-1.844 6.485-4.594 8.782l-130.741 109.128c-9.024 7.535-22.481 6.363-30.056-2.614-7.575-8.981-6.398-22.363 2.629-29.899l102.311-85.397h-133.234c-11.781 0-21.332-9.5-21.332-21.219s9.551-21.223 21.332-21.223h133.55l-102.057-85.185c-9.024-7.536-10.203-20.918-2.629-29.899 7.575-8.977 21.032-10.149 30.055-2.613l130.742 109.128c2.684 2.242 3.211 5.562 4.485 8.57h259.643l-129.992-223.966c-3.324 0.453-6.567 1.653-9.941 0.429l-160.375-58.064c-11.074-4.008-16.782-16.188-12.754-27.2 4.031-11.016 16.274-16.692 27.345-12.684l125.499 45.439-66.615-114.772c-5.891-10.153-2.394-23.13 7.809-28.993 10.203-5.859 23.25-2.379 29.141 7.77l66.779 115.050 23.133-130.512c2.047-11.543 13.109-19.25 24.715-17.215 11.602 2.035 19.352 13.040 17.305 24.582l-29.637 167.196c-0.641 3.617-2.383 6.648-4.535 9.332l129.136 222.494 129.331-222.83c-2.227-2.715-4.031-5.793-4.687-9.488l-29.637-167.196c-2.043-11.539 5.703-22.547 17.305-24.582 11.606-2.035 22.669 5.672 24.715 17.211l23.192 130.831 66.615-114.768c5.891-10.149 18.938-13.629 29.141-7.77s13.7 18.84 7.809 28.989l-66.775 115.054 125.195-45.329c11.070-4.008 23.313 1.668 27.341 12.684 4.031 11.012-1.676 23.192-12.75 27.2l-160.375 58.064c-3.473 1.258-6.981 1.274-10.394 0.762l-129.017 222.282h261.37c1.27-3.008 1.801-6.328 4.485-8.57l130.742-109.128c9.027-7.536 22.485-6.364 30.055 2.613 7.575 8.981 6.399 22.364-2.629 29.899l-102.057 85.185h131.585c11.781 0.001 21.332 9.505 21.332 21.224s-9.551 21.219-21.332 21.219z" />
<glyph unicode="&#xe902;" glyph-name="around" d="M112.052 747.418c-19.378-8.625-35.172-20.835-48.026-36.014l6.797-20.634-19.009 3.993c-13.66-21.58-22.963-47.525-28.916-76.641l30.373-4.229-34.094-17.281c-2.774-19.143-4.362-39.442-5.040-60.544 45.929 21.713 82.591 36.053 112.457 49.005l7.543 33.653 10.416-25.601c29.765 13.9 52.019 27.732 70.115 49.444l-9.676 47.726 25.945-24.016c5.714 9.982 10.99 21.311 16.030 34.436 53.201-107.457 11.4-341.972-32.332-449.391-54.657-4.029-114.963 2.809-198.129 32.299 203.775-338.961 680.22-64.604 997.236-114.964 0 0-93.824 72.417-229.213 114.154v182.231h45.929l9.475 21.849c-149.094 153.957-92.132 95.143-201.24 207.804l-84.417-87.166v31.36h10.68v26.815h-75.247v-26.815h11.799v-85.846l-65.040-67.136 10.756-20.864h45.599v-160.451c-69.983-8.352-123.25-22.595-171.989-34.432 23.031 119.801 31.522 291.136-6.122 390.375 10.045-9.341 20.362-16.038 29.999-18.265l10.519 21.065 4.228-29.118c24.553-12.954 54.76-27.463 92.4-48.908 0.812 17.996 0.778 35.316-0.339 51.747l-27.903 16.915 26.112 1.625c-3.176 25.124-9.369 47.753-19.618 67.001l-16.399-2.138 7.102 17.080c-9.438 13.096-21.345 24.015-36.158 32.439 25.097 9.707 54.827 22.19 93.657 35.583-12.989 12.476-26.049 23.873-39.169 33.922l-31.082-9.84 15.994 20.692c-20.967 14.205-42.107 24.492-63.277 29.461l-9.237-13.729-8.148 16.604c-38.998 3.725-78.197-11.769-117.396-54.927-27.736 24.492-56.517 34.638-85.908 33.96l-9.335-15.963-8.186 14.34c-21.506-3.449-43.324-12.171-65.237-24.827l14.438-21.78-30.301 12.007c-13.802-9.028-27.634-19.479-41.467-30.98 39.81-17.051 69.639-32.364 94.805-44.074l25.739 14.212-8.492-17.222zM695.204 341.457h-116.11v122.135h116.11v-122.135zM1023.621 53.361c-186.561 31.998-453.716-113.373-613.767 4.192 159.603 8.461 335.722 60.037 491.027 67.441 73.899-30.91 122.74-71.633 122.74-71.633v0zM796.643 221.391c-61.354-7.31-122.203-18.057-179.359-27.463-127.68-20.972-303.282-51.777-425.718 1.757-0.135 0.067-0.305 0.132-0.473 0.206 112.085 1.695 194.983 46.678 347.451 58.244 18.435 1.416 36.9 2.227 55.328 2.6 68.87 1.42 137.696-12.209 202.77-35.344z" />
<glyph unicode="&#xe903;" glyph-name="bed" d="M998.092 498.669c-86.372 74.318-181.545 79.912-181.545 79.912-347.891 223.751-582.22 0-582.22 0-131.959-3.196-209.535-79.912-209.535-79.912v-205.419c-15.42-21.125-24.792-46.898-24.792-75.068v-281.285h153.553v77.263h716.055v-77.263h154.075v281.286c0.001 28.618-9.721 54.739-25.591 76.015v204.472zM75.976 480.29c81.575 53.541 165.548 50.344 165.548 50.344 275.914 231.742 569.426-1.597 569.426-1.597 103.94-14.185 151.651-69.823 135.958-55.938v-137.846c-15.696 6.867-32.965 10.788-51.186 10.788h-53.207c-27.516 57.284-85.85 96.967-153.653 96.967-67.828 0-126.161-39.682-153.678-96.967h-46.684c-27.517 57.284-85.848 96.967-153.678 96.967-67.804 0-126.161-39.682-153.652-96.967h-53.208c-18.569 0-36.064-4.121-51.984-11.214v145.462h-0.001zM786.382 346.041h-195.065c22.368 29.616 57.558 49.019 97.545 49.019 39.963 0 75.151-19.403 97.52-49.019v0zM432.366 346.041h-195.064c22.393 29.616 57.557 49.019 97.52 49.019 39.987 0 75.177-19.403 97.544-49.019v0zM972.5 197.954v-209.914h-51.184v76.713h-818.424v-76.713h-50.634v230.142h-1.075c0 42.378 34.365 76.715 76.776 76.715h767.761c42.413 0 76.778-34.338 76.778-76.715v-20.228z" />
<glyph unicode="&#xe904;" glyph-name="brush" d="M852.123 890.374c2.435 9.739-4.869 17.042-12.173 19.477l-233.724 48.693c-9.739 2.435-17.042-4.869-19.477-12.173l-26.781-131.47-99.82-365.194h-48.693v2.435c-19.477 41.389-31.65 75.473-41.389 104.689l-38.954 148.512 82.777 21.912c26.781 7.304 43.823 34.085 36.519 63.3-2.435 12.173-9.739 21.912-21.912 29.216 12.173 21.912 4.869 51.127-17.042 65.735 12.173 24.346 4.869 55.996-21.912 68.17-12.173 7.304-24.346 7.304-36.519 4.869l-85.212-21.912c-14.608 24.346-46.258 29.216-70.604 14.608-19.477-12.173-26.781-34.085-21.912-55.996l114.428-445.537h-48.693c-9.739 0-17.042-7.304-17.042-17.042v-2.435l51.127-477.187c0-9.739 7.304-14.608 17.042-14.608h477.187c9.739 0 17.042 7.304 17.042 14.608l51.127 477.187c0 9.739-4.869 17.042-14.608 19.477h-38.954l41.389 309.198 26.781 131.47zM357.894 922.024c9.739 2.435 19.477 0 21.912-9.739s0-19.477-9.739-21.912h-4.869l-34.085-7.304c-9.739 0-17.042-9.739-14.608-19.477 0-9.739 9.739-17.042 19.477-14.608h4.869l34.085 7.304c9.739 2.435 19.477-2.435 21.912-12.173s-2.435-19.477-12.173-21.912l-34.085-7.304c-9.739 0-17.042-9.739-14.608-19.477 0-9.739 9.739-17.042 19.477-14.608h4.869l34.085 7.304c9.739 2.435 19.477-2.435 21.912-12.173s-2.435-19.477-12.173-21.912l-82.777-19.477-43.823 165.555 80.343 21.912zM204.512 900.113c-2.435 9.739 2.435 19.477 12.173 21.912s19.477-2.435 21.912-12.173l51.127-197.205 43.823-165.555c9.739-29.216 21.912-60.866 38.954-97.385h-48.693l-119.297 450.406zM752.304-29.915h-445.537l-38.954 374.933h525.88l-41.389-374.933zM798.562 413.187l-2.435-34.085h-533.184l-2.435 34.085h538.053zM572.141 447.272c26.781 92.516 68.17 148.512 82.777 153.382 9.739-9.739 26.781-63.3 17.042-153.382h-99.82zM747.434 447.272h-43.823c7.304 87.647-4.869 177.728-46.258 187.466-43.823 9.739-97.385-87.647-124.166-187.466h-43.823l92.516 340.848 202.074-41.389-36.519-299.459zM793.692 780.816l-199.64 41.389 19.477 99.82 199.64-41.389-19.477-99.82z" />
<glyph unicode="&#xe905;" glyph-name="datamanagement" d="M582.258 597.293h196.564c1.92 0 3.45-1.565 3.45-3.45v-40.259c0-1.92-1.565-3.45-3.45-3.45h-196.564c-1.92 0-3.45 1.565-3.45 3.45v40.223c-0.036 1.92 1.529 3.485 3.45 3.485zM582.258 477.228h196.564c1.92 0 3.45-1.565 3.45-3.45v-40.259c0-1.92-1.565-3.45-3.45-3.45h-196.564c-1.92 0-3.45 1.565-3.45 3.45v40.259c-0.036 1.92 1.529 3.45 3.45 3.45zM620.845 357.199h157.976c1.92 0 3.45-1.565 3.45-3.45v-40.259c0-1.92-1.565-3.45-3.45-3.45h-157.976c-1.92 0-3.45 1.565-3.45 3.45v40.259c0 1.885 1.529 3.45 3.45 3.45zM609.322 185.139c0 102.638-68.248 189.38-161.639 217.902-3.023 0.925-3.343 5.121-0.462 6.437 74.685 34.426 118.144 125.293 74.72 217.795-13.799 29.412-37.698 52.991-67.181 66.647-116.864 54.058-231.381-30.407-231.381-141.154 0-63.518 37.734-118.251 91.934-143.288 2.916-1.351 2.632-5.512-0.427-6.437-93.427-28.523-161.639-115.299-161.639-217.902h0.036v-0.854c0-1.92 1.565-3.45 3.45-3.45h40.33c1.92 0 3.45 1.565 3.45 3.45v0.036c0 99.829 80.944 180.773 180.773 180.773s180.773-80.944 180.773-180.773c0-1.92 1.565-3.485 3.485-3.485h40.294c1.92 0 3.45 1.565 3.45 3.45v0.036c0.036 0.285 0.036 0.533 0.036 0.818zM271.355 552.802c0 78.81 83.363 138.523 166.547 95.597 16.68-8.607 30.301-22.228 38.943-38.907 43.033-83.185-16.68-166.618-95.526-166.618-60.637-0.036-109.965 49.292-109.965 109.929zM830.034 715.011h-308.591c-1.92 0-3.45-1.565-3.45-3.45v-40.259c0-1.92 1.565-3.45 3.45-3.45h298.953c1.92 0 3.45-1.565 3.45-3.45v-432.959c0-1.92-1.565-3.45-3.45-3.45h-128.778c-1.92 0-3.45-1.565-3.45-3.45v-40.259c0-1.92 1.565-3.45 3.45-3.45h157.656c12.021 0 21.765 9.745 21.765 21.765v471.44c-0.036 22.619-18.387 40.97-41.006 40.97z" />
<glyph unicode="&#xe906;" glyph-name="describe" d="M716.8 916.48l204.8-232.96v-468.48c0-61.44-56.32-117.76-117.76-117.76h-28.16v-7.68c0-61.44-56.32-110.080-117.76-110.080h-437.76c-61.44 0-117.76 56.32-117.76 117.76v583.68c0 61.44 51.2 115.2 112.64 115.2h33.28v7.68c0 61.44 53.76 110.080 117.76 110.080 0 2.56 348.16 2.56 350.72 2.56zM248.32 215.040v524.8h-33.28c-30.72 0-56.32-28.16-56.32-56.32v-586.24c0-30.72 28.16-58.88 58.88-58.88h437.76c30.72 0 58.88 23.040 58.88 53.76v5.12h-350.72c-58.88 0-115.2 56.32-115.2 117.76zM716.8 857.6v-87.040c0-30.72 28.16-87.040 58.88-87.040h87.040l-145.92 174.080zM862.72 624.64h-87.040c-61.44 0-117.76 56.32-117.76 115.2v117.76h-291.84c-30.72 0-58.88-28.16-58.88-58.88v-586.24c0-30.72 28.16-58.88 58.88-58.88h437.76c30.72 0 58.88 28.16 58.88 58.88v412.16zM716.8 302.080h-263.68c-15.36 0-28.16 12.8-28.16 28.16s12.8 28.16 28.16 28.16h263.68c15.36 0 28.16-12.8 28.16-28.16s-12.8-28.16-28.16-28.16zM716.8 448h-263.68c-15.36 0-28.16 12.8-28.16 28.16s12.8 28.16 28.16 28.16h263.68c15.36 0 28.16-12.8 28.16-28.16s-12.8-28.16-28.16-28.16z" />
<glyph unicode="&#xe907;" glyph-name="dove" d="M735.99 639.793c0-17.598 14.398-31.997 31.997-31.997s31.997 14.398 31.997 31.997-14.398 31.997-31.997 31.997-31.997-14.198-31.997-31.997zM767.986 831.972c-92.99 0-170.581-66.193-188.18-154.183-58.394 73.192-97.789 160.583-111.988 254.572-4.2 26.397-37.796 37.796-55.794 16.598-70.592-83.391-105.988-176.981-117.387-244.573-50.595 48.795-91.99 106.588-120.787 171.981-10.999 25.197-46.595 26.197-58.194 1.4-31.997-67.993-50.595-143.784-51.594-223.976-1.2-85.791 19.598-260.372 221.176-423.554l-257.572-64.393c-24.597-6.199-35.396-34.396-21.598-55.794 39.796-61.393 137.785-165.182 349.562-173.981 26.797-1.2 45.395 13.599 50.395 17.998l127.786 109.588h106.188c176.781 0 319.965 143.384 319.965 320.165v256.172l63.993 191.979h-255.972zM419.824 851.37c28.197-100.589 82.391-191.979 156.183-265.971v-25.397c-82.191 14.798-157.583 48.595-222.576 95.59 6.399 83.591 38.796 151.584 66.393 195.779zM895.972 650.591v-266.971c0-141.185-114.788-256.172-255.972-256.172h-129.786s-150.384-127.586-151.983-127.586c-149.184 6.199-231.575 64.793-274.77 113.788l341.563 85.391c-95.19 77.392-300.167 208.177-296.968 453.951 0.6 45.395 7.399 89.79 20.598 132.786 164.182-278.17 451.351-297.568 491.347-302.167v156.183c0 70.792 57.394 128.186 127.986 128.186h167.182l-39.196-117.387z" />
<glyph unicode="&#xe908;" glyph-name="drinking" d="M865.92 844.621c0 36.622-13.286 50.609-50.424 51.568-20.886 0.54-41.797 0.098-63.712 0.098l-542.291-0.030c-40.439-0.658-54.013-13.682-54.053-53.405-0.273-263.326-0.366-526.653-0.349-789.986 0.005-36.369 15.999-51.653 53.797-51.693 163.13-0.131 434.804-0.071 597.926-0.020 46.497 0.020 59.119 12.621 59.115 58.43-0.020 261.682-0.042 523.362-0.010 785.038zM201.393 796.973c0.103 38.348 17.766 54.128 55.474 54.189 128.362 0.196 381.002 0.226 509.365-0.041 36.386-0.078 54.752-17.942 54.932-55.519 0.634-124.307 0.714-248.616 0.121-372.919-0.181-38.433-17.261-55.327-54.66-55.704-65.134-0.648-130.283-0.176-195.431-0.176 0 0.141 0 0.287 0 0.432-63.202 0-250.687-0.266-313.893 0.090-40.363 0.231-53.681 11.879-54.203 53.807-1.559 125.269-2.051 250.561-1.705 375.84zM390.629 635.78h19.199c0 0 9.434 49.828 10.697 56.493 1.26 6.665 11.010 9.873 11.010 22.216 0 12.339 0 49.637 0 49.637h-62.57c0 0 0-39.307 0-49.637s9.507-15.449 10.97-22.216c1.461-6.766 10.694-56.493 10.694-56.493zM611.149 635.78h19.205c0 0 9.439 49.828 10.7 56.493 1.259 6.665 11.005 9.873 11.005 22.216 0 12.339 0 49.637 0 49.637h-62.568c0 0 0-39.307 0-49.637s9.51-15.449 10.971-22.216c1.461-6.766 10.689-56.493 10.689-56.493zM200.342 295.213c0.103 22.498 17.794 31.756 55.567 31.791 128.58 0.115 381.649 0.135 510.235-0.025 36.446-0.045 54.846-10.524 55.027-32.575 0.632-72.92 0.712-145.845 0.115-218.775-0.181-22.543-17.287-32.454-54.756-32.674-65.24-0.382-130.498-0.111-195.757-0.111 0 0.091 0 0.17 0 0.261-63.311 0-251.114-0.16-314.428 0.050-40.434 0.131-53.774 6.969-54.296 31.571-1.564 73.483-2.056 146.989-1.707 220.487zM587.386 359.142c33.312-1.355 66.706-0.663 102.417-0.663 7.124 65.611 13.859 127.616 20.695 190.553h-160.24c6.964-60.256 13.239-118.135 20.977-175.818 0.743-5.532 10.373-13.841 16.151-14.072zM594.153 479.066c28.784-1.253 57.664-0.334 88.34-0.334-2.485-30.205-4.815-55.883-6.636-81.594-1.175-16.619-9.44-23.829-26.118-22.574-19.682 1.486-39.413 2.229-59.014 3.284-4.951 28.749-9.56 54.108-13.575 79.558-2.020 12.727-0.879 22.44 17.003 21.659z" />
<glyph unicode="&#xe909;" glyph-name="elevator" d="M551.424 84.992c-6.144 0-11.776 2.56-15.872 7.68-6.656 8.704-5.632 21.504 3.584 28.16l117.76 92.672c7.168 5.632 17.408 5.632 25.088 0l117.76-92.672c8.704-6.656 10.24-19.456 3.584-28.16s-19.456-10.24-28.16-3.584l-104.96 82.944-105.984-82.432c-4.096-3.072-8.192-4.608-12.8-4.608zM669.184-61.952c-11.264 0-19.968 9.216-19.968 19.968v227.328c0 11.264 9.216 19.968 19.968 19.968 11.264 0 19.968-9.216 19.968-19.968v-227.328c0-10.752-8.704-19.968-19.968-19.968zM357.376-55.808c-4.608 0-8.704 1.536-12.288 4.096l-117.76 92.672c-8.704 6.656-10.24 19.456-3.584 28.16s19.456 10.24 28.16 3.584l104.96-82.944 104.96 82.944c8.704 6.656 21.504 5.632 28.16-3.584s5.632-21.504-3.584-28.16l-117.76-92.672c-2.56-2.56-6.656-4.096-11.264-4.096zM357.376-43.008c-11.264 0-19.968 9.216-19.968 19.968v227.328c0 11.264 9.216 19.968 19.968 19.968 11.264 0 19.968-9.216 19.968-19.968v-227.328c0-10.752-8.704-19.968-19.968-19.968zM766.464 247.296h-542.208c-46.592 0-83.968 37.888-83.968 83.968v542.72c0 46.592 37.888 83.968 83.968 83.968h542.208c46.592 0 83.968-37.888 83.968-83.968v-542.208c0-46.592-37.376-84.48-83.968-84.48zM234.496 905.728c-23.040 0-41.984-18.944-41.984-41.984v-521.728c0-23.040 18.944-41.984 41.984-41.984h521.728c23.040 0 42.496 18.944 42.496 41.984v521.216c0 23.040-18.944 41.984-42.496 41.984l-521.728 0.512zM363.52 851.968c23.552 0 42.496-18.944 42.496-42.496s-18.944-42.496-42.496-42.496c-23.552 0-42.496 18.944-42.496 42.496 0 23.040 18.944 42.496 42.496 42.496v0zM438.784 368.128h-148.48v117.248c-25.6 3.072-46.080 25.088-46.080 51.712v148.992c0 28.672 23.552 52.224 52.224 52.224h133.12c28.672 0 52.224-23.552 52.224-52.224v-148.992c0-26.112-18.944-47.616-43.52-51.712l0.512-117.248zM330.752 408.064h67.584v117.248h31.744c6.656 0 11.776 5.632 11.776 11.776v148.992c0 6.656-5.632 11.776-11.776 11.776h-133.12c-6.656 0-11.776-5.632-11.776-11.776v-148.992c0-6.656 5.632-11.776 11.776-11.776h33.792v-117.248zM625.152 851.968c23.552 0 42.496-18.944 42.496-42.496s-18.944-42.496-42.496-42.496c-23.552 0-42.496 18.944-42.496 42.496 0 23.040 18.944 42.496 42.496 42.496v0zM700.416 368.128h-147.968v117.248c-25.6 3.072-46.080 25.088-46.080 51.712v148.992c0 28.672 23.552 52.224 52.224 52.224h133.12c28.672 0 52.224-23.552 52.224-52.224v-148.992c0-26.112-18.944-47.616-43.52-51.712v-117.248zM592.384 408.064h67.584v117.248h31.744c6.656 0 11.776 5.632 11.776 11.776v148.992c0 6.656-5.632 11.776-11.776 11.776h-133.12c-6.656 0-12.288-5.632-12.288-11.776v-148.992c0-6.656 5.632-11.776 12.288-11.776h33.792v-117.248z" />
<glyph unicode="&#xe90a;" glyph-name="facilities" d="M411.955 176.45c-8.71 13.763-15.065 25.755-15.065 33.648 0-26.14-75.599-104.231-75.599-143.997s33.849-72.002 75.599-72.002c5.343 0 10.030 1.891 15.065 2.894v179.456zM18.909 66.102c0-39.762 33.849-72.002 75.601-72.002s75.593 32.24 75.593 72.002-75.593 116.155-75.593 143.997c0-26.133-75.601-104.231-75.601-143.997zM411.955 536.503h338.326c3.497 7.194 5.59 15.635 5.706 24.553v18.041c0 34.79-29.609 63.002-66.143 63.002h-217.343v143.998h-37.805v71.996h208.736v48.122h-511.405v-48.122h227.076v-71.996h-56.699v-143.998h-198.445c-36.535 0-66.149-28.212-66.149-63.002v-18.001c0.065-9.867 2.502-19.151 6.767-27.329l-0.158 0.332h-44.406v-72h411.942v74.405zM245.704 426.099c0-26.14-75.601-104.237-75.601-143.998s33.849-72.002 75.601-72.002 75.591 32.242 75.591 72.002-75.591 116.149-75.591 143.998zM571.418 383.538c-0.216-8.527-7.18-15.358-15.739-15.358-0.134 0-0.267 0.002-0.4 0.005h-78.795c-0.113-0.003-0.245-0.005-0.379-0.005-8.56 0-15.524 6.83-15.74 15.338v73.781c0.217 8.526 7.18 15.356 15.739 15.356 0.134 0 0.267-0.002 0.4-0.005h78.795c0.114 0.003 0.248 0.005 0.382 0.005 8.558 0 15.521-6.83 15.737-15.336v-73.781zM1024.028 394.697c0-15.264-12.987-27.632-29.014-27.632h-357.404c-0.061-0.002-0.133-0.002-0.206-0.002-4.849 0-8.796 3.867-8.924 8.685v89.322c0.125 4.833 4.073 8.703 8.924 8.703 0.072 0 0.144-0.001 0.216-0.003h377.271c0.063 0.002 0.137 0.002 0.211 0.002 4.851 0 8.799-3.87 8.924-8.691v-70.383zM571.418 196.241c-0.216-8.527-7.18-15.358-15.739-15.358-0.134 0-0.267 0.002-0.4 0.005h-78.795c-0.113-0.003-0.245-0.005-0.379-0.005-8.56 0-15.524 6.83-15.74 15.338v73.781c0.217 8.526 7.18 15.356 15.739 15.356 0.134 0 0.267-0.002 0.4-0.005h78.795c0.114 0.003 0.248 0.005 0.382 0.005 8.558 0 15.521-6.83 15.737-15.336v-73.781zM1024.028 207.4c0-15.264-12.987-27.632-29.014-27.632h-357.404c-0.061-0.002-0.133-0.002-0.206-0.002-4.851 0-8.799 3.87-8.924 8.691v89.314c0.128 4.83 4.075 8.697 8.924 8.697 0.072 0 0.144-0.001 0.216-0.003h377.271c0.063 0.002 0.137 0.003 0.211 0.003 4.85 0 8.796-3.867 8.924-8.685v-70.383zM571.418 7.722c-0.216-8.527-7.18-15.358-15.739-15.358-0.134 0-0.267 0.002-0.4 0.005h-78.795c-0.113-0.003-0.247-0.005-0.38-0.005-8.559 0-15.523 6.83-15.738 15.338v73.787c0.217 8.527 7.181 15.358 15.741 15.358 0.133 0 0.266-0.002 0.398-0.005h78.795c0.113 0.003 0.247 0.005 0.38 0.005 8.559 0 15.523-6.83 15.738-15.338v-73.78zM1024.028 18.87c0-15.262-12.987-27.632-29.014-27.632h-357.404c-0.061-0.002-0.133-0.002-0.206-0.002-4.851 0-8.799 3.87-8.924 8.691v89.32c0.128 4.83 4.075 8.697 8.924 8.697 0.072 0 0.144-0.001 0.216-0.003h377.271c0.063 0.002 0.137 0.003 0.211 0.003 4.85 0 8.796-3.867 8.924-8.685v-70.388z" />
<glyph unicode="&#xe90b;" glyph-name="feature" d="M512 326.4c-128 0-217.6 230.4-217.6 352s96 217.6 217.6 217.6c121.6 0 217.6-96 217.6-217.6s-89.6-352-217.6-352zM512 844.8c-89.6 0-166.4-76.8-166.4-166.4 0-102.4 83.2-294.4 166.4-294.4s166.4 192 166.4 294.4c0 89.6-76.8 166.4-166.4 166.4zM403.2 659.2c-6.4 0-12.8 6.4-12.8 12.8 0 70.4 57.6 134.4 134.4 134.4 6.4 0 12.8-6.4 12.8-12.8s-6.4-12.8-12.8-12.8c-57.6 0-108.8-44.8-108.8-108.8 0-6.4-6.4-12.8-12.8-12.8zM403.2 608c-6.4 0-6.4 0-6.4 6.4 0 0-6.4 6.4-6.4 6.4 0 6.4 0 6.4 6.4 6.4 6.4 6.4 12.8 6.4 19.2 0 0 0 6.4-6.4 6.4-6.4 0-6.4 0-6.4-6.4-6.4 0-6.4-6.4-6.4-12.8-6.4zM512 0c-76.8 0-320 6.4-320 108.8 0 140.8 96 268.8 224 313.6l19.2 6.4 12.8-19.2c38.4-44.8 89.6-44.8 134.4 0l12.8 12.8 19.2-6.4c134.4-44.8 224-172.8 224-313.6-6.4-96-249.6-102.4-326.4-102.4zM422.4 364.8c-102.4-38.4-172.8-140.8-172.8-256 0-12.8 83.2-51.2 268.8-51.2s268.8 38.4 268.8 51.2c0 115.2-70.4 217.6-172.8 256-38.4-25.6-70.4-44.8-102.4-44.8s-64 19.2-89.6 44.8z" />
<glyph unicode="&#xe90c;" glyph-name="heater" d="M511.501 164.698c-156.74 0-283.803 127.062-283.803 283.802s127.063 283.803 283.802 283.803c156.741 0 283.804-127.063 283.804-283.802 0-156.741-127.063-283.804-283.803-283.804zM511.501 688.64c-132.627 0-240.141-107.514-240.141-240.141s107.514-240.141 240.141-240.141c132.626 0 240.141 107.515 240.141 240.141 0.001 0.194 0.001 0.425 0.001 0.655 0 132.626-107.515 240.141-240.141 240.141 0 0-0.001 0-0.001 0v0-0.655zM511.501 824.43c-12.058 0-21.832 9.774-21.832 21.83v91.909c0 12.056 9.774 21.83 21.832 21.83s21.83-9.774 21.83-21.83v-92.346c-0.238-11.886-9.942-21.396-21.83-21.394zM230.536 707.852c-5.964 0.026-11.359 2.439-15.283 6.332l-65.491 65.493c-2.572 3.537-4.115 7.966-4.115 12.756 0 12.057 9.774 21.83 21.83 21.83 4.735 0 9.118-1.508 12.695-4.069l-0.066 0.045 65.492-65.492c3.74-3.911 6.042-9.225 6.042-15.076 0-11.802-9.365-21.416-21.068-21.817l-0.037-0.001zM114.176 427.105h-92.346c-12.056 0-21.83 9.774-21.83 21.829 0 12.058 9.774 21.832 21.83 21.832h92.346c12.058 0 21.832-9.774 21.832-21.832s-9.774-21.83-21.832-21.83zM165.043 80.429c-11.746 0.395-21.119 10.012-21.119 21.819 0 5.745 2.219 10.972 5.848 14.87l-0.012-0.013 65.494 65.494c4.005 5.594 10.484 9.197 17.803 9.197 12.057 0 21.83-9.774 21.83-21.83 0-7.265-3.549-13.701-9.007-17.669l-0.063-0.044-65.494-65.492c-3.923-3.892-9.318-6.305-15.277-6.331h-0.005zM511.501-63.002c-12.058 0-21.832 9.774-21.832 21.832v92.346c0 12.058 9.774 21.83 21.832 21.83s21.83-9.774 21.83-21.83v-92.782c-0.238-11.886-9.942-21.396-21.83-21.395zM857.958 80.429c-5.964 0.026-11.359 2.439-15.283 6.332l-65.491 65.491c-2.728 3.604-4.37 8.162-4.37 13.103 0 12.057 9.774 21.83 21.83 21.83 4.941 0 9.499-1.642 13.158-4.41l-0.055 0.040 65.492-65.492c3.737-3.911 6.036-9.222 6.036-15.070 0-11.877-9.484-21.538-21.292-21.824l-0.027-0.001zM1001.606 427.104h-92.781c-12.058 0-21.83 9.775-21.83 21.832s9.774 21.832 21.83 21.832h92.782c12.058 0 21.832-9.774 21.832-21.832s-9.774-21.83-21.832-21.83zM792.466 707.853c-11.746 0.395-21.119 10.012-21.119 21.819 0 5.745 2.219 10.972 5.848 14.87l-0.012-0.013 65.494 65.494c3.477 2.445 7.8 3.908 12.464 3.908 12.057 0 21.83-9.774 21.83-21.83 0-4.554-1.394-8.782-3.779-12.28l0.049 0.076-65.492-65.492c-3.895-3.973-9.29-6.462-15.267-6.55h-0.016z" />
<glyph unicode="&#xe90d;" glyph-name="hotbathtub" d="M856.92 157.141c-2.74-3.196-5.574-6.317-8.577-9.27v-27.045c8.486 6.389 16.214 13.724 23.133 21.763l-14.556 14.552zM906.8 237.54v29.231h-14.615v-14.615c0-25.658-6.64-49.739-18.261-70.678l14.447-14.446c11.623 20.911 18.428 44.866 18.428 70.508zM485.923 675.591l7.563-28.232c0.864-3.143 3.697-5.413 7.059-5.413 0.673 0 1.324 0.091 1.943 0.261l-0.051-0.012c3.144 0.862 5.417 3.694 5.417 7.057 0 0.672-0.091 1.323-0.261 1.941l0.012-0.051-7.568 28.236c-0.879 3.12-3.699 5.368-7.045 5.368-4.035 0-7.307-3.271-7.307-7.307 0-0.657 0.087-1.293 0.249-1.899l-0.012 0.051zM483.525 712.774c3.145 0.864 5.417 3.697 5.417 7.061 0 0.672-0.091 1.323-0.261 1.941l0.012-0.051-7.567 28.232c-1.046 3.899-4.257 6.651-8.157 5.606-3.898-1.042-7.005-5.494-5.958-9.391l7.568-28.232c0.862-3.143 3.693-5.415 7.055-5.415 0.673 0 1.324 0.091 1.943 0.261l-0.051-0.012zM965.256 529.821h-833.008v263.058c0 56.496 45.8 102.299 102.299 102.299 48.434 0 88.777-33.755 99.375-78.956l-65.521-17.556c-11.699-3.133-18.636-15.154-15.504-26.853 3.133-11.694 15.154-18.628 26.848-15.495l169.393 45.386c11.694 3.137 18.637 15.153 15.504 26.848-3.133 11.694-15.154 18.637-26.849 15.5l-61.684-16.529c-15.617 63.902-72.847 111.497-141.561 111.497-80.709 0-146.138-65.432-146.138-146.14v-263.058h-29.232c-32.281 0-58.453-26.172-58.453-58.457 0-27.1 18.821-48.881 43.842-55.501v-192.939c0-112.997 91.598-204.596 204.597-204.596v-36.539c0-12.106 9.812-21.918 21.919-21.918s21.923 9.812 21.923 21.918v36.539h467.651v-36.539c0-12.106 9.815-21.918 21.923-21.918s21.923 9.812 21.923 21.918v39.483c99.032 14.293 175.366 98.666 175.366 201.653v192.939c25.022 6.618 43.842 28.4 43.842 55.5 0 32.284-26.172 58.457-58.453 58.457zM936.025 222.925c0-88.784-71.972-160.755-160.755-160.755h-526.108c-88.784 0-160.755 71.972-160.755 160.755v189.986h847.619v-189.986zM965.256 456.752h-906.080c-8.070 0-14.611 6.541-14.611 14.611 0 8.075 6.541 14.616 14.611 14.616h906.080c8.070 0 14.611-6.541 14.611-14.615 0-8.070-6.541-14.611-14.611-14.611zM375.762 691.465l-7.563 28.232c-0.862 3.144-3.694 5.416-7.057 5.416-0.674 0-1.326-0.091-1.946-0.262l0.051 0.012c-3.144-0.861-5.416-3.692-5.416-7.054 0-0.675 0.092-1.328 0.263-1.948l-0.012 0.051 7.564-28.228c0.812-3.217 3.68-5.559 7.096-5.559 4.036 0 7.308 3.272 7.308 7.308 0 0.724-0.105 1.424-0.302 2.084l0.013-0.052zM333.044 596.804c3.144 0.864 5.415 3.697 5.415 7.060 0 0.673-0.091 1.324-0.261 1.943l0.012-0.051-7.563 28.228c-0.861 3.146-3.694 5.419-7.058 5.419-0.673 0-1.325-0.091-1.945-0.262l0.051 0.012c-3.143-0.862-5.415-3.694-5.415-7.056 0-0.673 0.091-1.324 0.261-1.943l-0.012 0.051 7.563-28.236c0.865-3.143 3.698-5.414 7.061-5.414 0.672 0 1.323 0.091 1.941 0.26l-0.051-0.012zM319.298 676.334l-7.563 28.232c-0.863 3.144-3.695 5.416-7.058 5.416-4.036 0-7.307-3.272-7.307-7.307 0-0.672 0.091-1.324 0.261-1.942l-0.012 0.051 7.564-28.232c0.862-3.143 3.693-5.414 7.054-5.414 0.673 0 1.325 0.091 1.944 0.262l-0.051-0.012c3.144 0.861 5.417 3.693 5.417 7.055 0 0.672-0.091 1.324-0.261 1.942l0.012-0.051zM389.509 611.934c3.144 0.863 5.415 3.696 5.415 7.059 0 0.673-0.091 1.325-0.261 1.944l0.012-0.051-7.563 28.231c-0.865 3.143-3.698 5.414-7.061 5.414-0.672 0-1.323-0.091-1.941-0.26l0.051 0.012c-3.144-0.861-5.416-3.693-5.416-7.055 0-0.674 0.091-1.327 0.262-1.947l-0.012 0.051 7.563-28.228c0.862-3.145 3.695-5.418 7.058-5.418 0.673 0 1.325 0.091 1.944 0.261l-0.051-0.012zM432.226 706.595l-7.564 28.232c-0.863 3.144-3.696 5.415-7.059 5.415-0.673 0-1.325-0.091-1.944-0.261l0.051 0.012c-3.143-0.861-5.415-3.691-5.415-7.053 0-0.674 0.091-1.326 0.262-1.946l-0.012 0.051 7.563-28.236c0.863-3.141 3.694-5.411 7.055-5.411 0.674 0 1.328 0.091 1.948 0.263l-0.051-0.012c3.143 0.86 5.415 3.691 5.415 7.053 0 0.673-0.091 1.325-0.262 1.944l0.012-0.051zM445.973 627.064c3.145 0.863 5.417 3.696 5.417 7.060 0 0.671-0.090 1.321-0.26 1.938l0.012-0.051-7.568 28.232c-0.908 3.076-3.707 5.283-7.022 5.283-4.036 0-7.308-3.272-7.308-7.308 0-0.622 0.078-1.227 0.224-1.803l-0.011 0.051 7.568-28.236c0.862-3.143 3.694-5.415 7.056-5.415 0.673 0 1.324 0.091 1.943 0.261l-0.051-0.012z" />
<glyph unicode="&#xe90e;" glyph-name="icebox" d="M252.062-32.492c-47.262 0-94.523 47.262-94.523 94.523v803.446c0 47.262 47.262 94.523 94.523 94.523h512c55.138 0 102.4-47.262 102.4-94.523v-795.569c0-23.631-7.877-47.262-31.508-70.892-15.754-15.754-39.385-31.508-70.892-31.508h-512zM212.677 62.031c0-23.631 23.631-47.262 47.262-47.262h512c23.631 0 47.262 23.631 47.262 47.262v393.846h-606.523v-393.846zM811.323 503.138v362.338c0 23.631-23.631 47.262-47.262 47.262h-512c-23.631 0-47.262-23.631-47.262-47.262v-362.338h606.523zM322.954 597.662c-7.877 0-23.631 7.877-23.631 23.631v94.523c0 15.754 7.877 23.631 23.631 23.631s23.631-7.877 23.631-23.631v-94.523c7.877-15.754-7.877-23.631-23.631-23.631zM322.954 219.569c-7.877 0-23.631 7.877-23.631 23.631v94.523c0 15.754 7.877 23.631 23.631 23.631s23.631-7.877 23.631-23.631v-94.523c7.877-15.754-7.877-23.631-23.631-23.631z" />
<glyph unicode="&#xe90f;" glyph-name="iscook" d="M639.967 436.615c23.2-23.198 54.585-35.958 88.224-35.958 30.227 0 60.318 10.508 84.609 29.545l202.24 154.341c5.038 3.802 8.375 9.626 8.799 16.242l0.003 0.065c0.41 6.414-1.911 12.759-6.482 17.332l-291.078 291.078c-4.030 4.044-9.604 6.547-15.762 6.549h-0.001c-0.546 0-1.023 0-1.569-0.069-6.666-0.431-12.481-3.738-16.268-8.681l-0.039-0.053-154.274-202.373c-41.621-53.221-38.824-127.527 6.483-172.832l36.3-36.368-18.9-18.968 0.546-0.547-81.128-81.060-95.731 95.731c72.804 85.631 69.12 214.725-12.418 296.262-41.827 41.827-97.299 64.89-156.184 64.89-58.133 0-112.65-22.517-153.522-63.457-85.017-84.948-84.334-223.938 1.365-309.706 41.826-41.827 97.299-64.889 156.184-64.889 52.743 0 101.87 19.377 141.24 53.289l95.661-95.662-142.332-142.333-6.961 6.959c-9.961 9.962-23.129 15.421-37.255 15.421-14.056 0-27.224-5.458-37.186-15.419l-134.688-134.691c-20.47-20.47-20.47-53.904 0.068-74.441l33.298-33.298c9.961-9.893 23.198-15.419 37.186-15.419 14.056 0 27.293 5.457 37.255 15.419l134.622 134.69c9.962 9.895 15.419 23.132 15.419 37.187s-5.457 27.293-15.419 37.255l-2.866 2.865 142.333 142.333 140.215-140.217-4.982-4.982c-20.537-20.537-20.537-53.903-0.068-74.441l134.69-134.69c9.964-9.893 23.132-15.419 37.187-15.419s27.293 5.457 37.187 15.419l33.364 33.298c9.895 9.961 15.353 23.198 15.353 37.255 0 14.123-5.458 27.291-15.419 37.254l-134.623 134.69c-9.893 9.962-23.13 15.421-37.186 15.421s-27.294-5.458-37.187-15.419l-4.845-4.845-140.283 140.217 100.028 100.028 34.799-34.799zM350.867 501.3c-34.526-34.458-80.514-53.494-129.504-53.494-49.742 0-96.618 19.514-132.030 54.927-35.072 35.069-54.518 81.673-54.722 131.21-0.273 49.4 18.695 95.593 53.289 130.255 34.457 34.457 80.377 53.426 129.436 53.426 49.81 0 96.685-19.515 132.098-54.859 72.395-72.461 73.076-189.822 1.433-261.465zM318.046 152.36l-134.621-134.622c-3.548-3.548-8.12-5.46-13.168-5.46-5.050 0-9.554 1.843-13.101 5.392l-33.229 33.297c-7.233 7.232-7.233 19.036-0.068 26.202l134.758 134.69c3.548 3.548 7.984 5.392 13.032 5.392 5.050 0 9.554-1.844 13.101-5.392l33.298-33.298c3.548-3.548 5.458-8.12 5.458-13.168 0-4.982-1.843-9.485-5.46-13.032zM641.058 178.562l33.364 33.364c3.548 3.548 8.052 5.392 13.034 5.392 5.048 0 9.551-1.844 13.1-5.392l134.69-134.69c3.548-3.548 5.392-8.052 5.392-13.101s-1.912-9.621-5.323-13.1l-33.366-33.298c-3.548-3.548-8.052-5.389-13.101-5.389-4.981 0-9.553 1.842-13.1 5.39l-134.69 134.69c-3.481 3.48-5.392 8.12-5.392 13.101 0 4.911 1.911 9.551 5.392 13.032zM983.787 603.512l-192.003-146.495c-18.286-14.328-40.871-22.243-63.523-22.243-12.964 0-25.314 2.865-36.64 7.778l233.829 219.298 58.338-58.338zM901.977 685.322l-238.607-223.801-34.593 34.525 231.238 231.239 41.963-41.963zM565.524 683.957l146.222 191.665 55.473-55.473-217.592-233.832c-11.94 30.909-7.095 68.232 15.898 97.64zM569.004 555.885c-0.41 0.41-0.546 1.025-0.955 1.433l222.711 239.222 45.851-45.852-231.307-231.17-36.3 36.368zM125.838 728.718c-25.656-25.588-39.779-59.567-39.779-95.662 0-35.616 13.783-69.051 38.892-94.092 50.901-50.969 133.326-51.311 186.070-2.116 0.341 0.342 0.75 0.478 1.023 0.82 0.068 0.068 0.136 0.068 0.205 0.068l-0.069 0.068c2.798 3.071 4.709 7.028 4.709 11.463 0 9.416-7.643 17.059-17.059 17.059-3.685 0-6.686-1.911-9.416-3.889 0 0-28.521-29.068-70.894-28.111-26.747 0.476-51.719 10.029-70.416 28.792-18.626 18.56-28.931 43.396-28.931 69.938 0 26.952 10.577 52.403 29.75 71.576 39.302 39.233 102.826 39.642 141.581 0.886 6.891-6.959 17.264-23.063 17.264-23.063 3.002-4.777 7.437-8.46 13.441-8.46 9.417 0 17.469 7.642 17.059 17.059-0.615 13.986-15.898 30.772-23.677 38.55-52.060 52.061-137.214 51.721-189.753-0.886z" />
<glyph unicode="&#xe910;" glyph-name="landlord" d="M480.812 377.827c-160.617 0-291.086 130.469-291.086 291.086s130.469 291.086 291.086 291.086 291.086-130.469 291.086-291.086-130.469-291.086-291.086-291.086zM480.812 897.624c-126.311 0-228.711-102.4-228.711-228.711s102.4-228.711 228.711-228.711 228.711 102.4 228.711 228.711-102.4 228.711-228.711 228.711zM49.381-64c-17.153 0-31.188 14.035-31.188 31.188 0 260.938 212.077 473.015 473.015 473.015 17.153 0 31.188-14.035 31.188-31.188s-14.035-31.188-31.188-31.188c-226.631 0-410.64-184.008-410.64-410.64 0-17.153-14.035-31.188-31.188-31.188zM470.416 97.137c-7.797 0-16.114 3.119-21.831 9.356-11.955 11.955-11.955 31.708 0 44.183l249.503 249.503c11.955 11.955 31.188 12.475 43.143 0.52l254.701-239.107c12.475-11.955 12.995-31.708 1.559-44.183-11.955-12.475-31.708-12.995-44.183-1.559l-232.869 218.315-228.191-228.191c-5.718-5.718-14.035-8.837-21.831-8.837zM891.452-43.208h-119.553c-17.153 0-31.188 14.035-31.188 31.188v93.563h-46.782v-93.563c0-17.153-14.035-31.188-31.188-31.188h-119.553c-17.153 0-31.188 14.035-31.188 31.188v207.919c0 17.153 14.035 31.188 31.188 31.188s31.188-14.035 31.188-31.188v-176.731h57.178v93.563c0 17.153 14.035 31.188 31.188 31.188h109.157c17.153 0 31.188-14.035 31.188-31.188v-93.563h57.178v192.325c0 17.153 14.035 31.188 31.188 31.188s31.188-14.035 31.188-31.188v-223.513c0-17.153-14.035-31.188-31.188-31.188z" />
<glyph unicode="&#xe911;" glyph-name="lodger" d="M514.586 380.768c-159.806 0-289.616 129.81-289.616 289.616s129.81 289.616 289.616 289.616 289.616-129.81 289.616-289.616-129.81-289.616-289.616-289.616zM514.586 897.939c-125.673 0-227.556-101.883-227.556-227.556s101.883-227.556 227.556-227.556 227.556 101.883 227.556 227.556-101.883 227.556-227.556 227.556zM85.333-58.828c-17.067 0-31.030 13.964-31.030 31.030 0 259.62 211.006 470.626 470.626 470.626 17.067 0 31.030-13.964 31.030-31.030s-13.964-31.030-31.030-31.030c-225.487 0-408.566-183.079-408.566-408.566 0-17.067-13.964-31.030-31.030-31.030zM819.717-64c-77.576 0-140.154 63.095-140.154 140.154s63.095 140.154 140.154 140.154 140.154-63.095 140.154-140.154-63.095-140.154-140.154-140.154zM819.717 154.764c-42.925 0-78.093-35.168-78.093-78.093s34.651-78.61 78.093-78.61 78.093 35.168 78.093 78.093-35.168 78.61-78.093 78.61zM819.717 174.416c-17.067 0-31.030 13.964-31.030 31.030v242.554c0 17.067 13.964 31.030 31.030 31.030h118.949c17.067 0 31.030-13.964 31.030-31.030s-13.964-31.030-31.030-31.030h-87.919v-211.523c0-17.067-13.964-31.030-31.030-31.030zM938.667 311.467h-109.64c-17.067 0-31.030 13.964-31.030 31.030s13.964 31.030 31.030 31.030h109.64c17.067 0 31.030-13.964 31.030-31.030s-13.964-31.030-31.030-31.030z" />
<glyph unicode="&#xe912;" glyph-name="meet" d="M945.695 57.71c-3.805 7.136-11.605 10.425-19.888 8.306-10.964-2.801-21.878-5.722-32.826-8.579-3.772-0.979-7.56-1.927-11.428-2.913-23.131 81.845-46.18 163.355-69.214 244.84 2.264 1.782 4.302 3.283 6.228 4.945 8.925 7.672 15.859 17.038 21.847 27.142 9.020 15.233 15.394 31.606 20.193 48.644 9.615 34.085 13.081 69.006 13.643 104.293 0.338 21.798-0.465 43.58-2.022 65.322-1.173 16.445-2.376 32.914-4.254 49.285-2.023 17.777-4.639 35.497-7.383 53.178-3.42 21.886-8.123 43.515-14.303 64.8-16.998 58.652-38.523 115.61-62.664 171.582-0.963 2.231-2.152 4.398-3.468 6.437-10.4 16.165-30.448 25.54-52.438 19.4-24.351-6.79-48.781-13.291-73.18-19.92-35.184-9.551-70.353-19.142-105.553-28.62-21.767-5.859-34.254-25.193-34.735-43.427-0.113-3.972 0.337-7.97 0.53-11.958 0.802-15.715 2.696-31.324 5.2-46.831 2.953-18.17 6.18-36.301 9.63-54.374 4.045-21.116 8.491-42.136 14.896-62.681 13.692-43.876 30.033-86.734 48.107-128.917 13.467-31.445 27.897-62.416 45.346-91.855 15.265-25.771 31.477-50.89 50.498-74.013 11.348-13.796 23.612-26.678 37.897-37.409 12.071-9.060 25.089-16.147 39.936-19.269 3.836-0.811 7.737-1.253 12.055-1.935 23.274-82.287 46.582-164.751 69.937-247.368-2.537-0.691-4.736-1.301-6.934-1.878-16.582-4.358-33.194-8.62-49.743-13.098-7.577-2.055-12.457-8.549-12.616-16.036-0.177-8.058 4.173-14.471 11.637-17.222 0.706-0.258 1.396-0.571 2.103-0.86h6.854c6.468 1.798 12.905 3.684 19.39 5.386 37.913 9.928 75.827 19.84 113.773 29.687 5.394 1.397 9.983 3.765 12.776 8.853 0.834 1.525 1.381 3.218 2.055 4.832v7.737c-0.612 1.5-1.109 3.065-1.88 4.494zM564.103 711.654c-3.868 22.064-8.009 44.077-11.364 66.22-2.038 13.483-2.921 27.143-4.11 40.747-0.658 7.328 2.922 11.87 10.402 13.901 21.090 5.722 42.183 11.412 63.274 17.135 37.529 10.169 75.041 20.354 112.569 30.514 1.942 0.53 3.949 1.067 5.939 1.163 5.458 0.265 9.519-2.391 11.67-7.568 7.464-18.050 15.088-36.036 22.278-54.206 13.082-33.114 24.88-66.726 35.185-100.851 0.401-1.332 0.739-2.688 1.236-4.494-81.494-5.426-162.682-10.835-244.159-16.26-1.010 4.694-2.118 9.164-2.922 13.699zM790.67 328.722c-12.664-1.894-24.174 1.228-35.008 7.721-11.269 6.758-20.914 15.522-29.824 25.129-18.909 20.377-34.382 43.346-49.182 66.846-21.413 33.981-38.588 70.176-54.254 107.143-16.87 39.768-32.28 80.096-45.089 121.421-0.595 1.95-1.156 3.916-1.942 6.581 20.914 1.412 41.284 2.817 61.671 4.165 20.273 1.341 40.562 2.592 60.851 3.941 20.402 1.356 40.802 2.721 61.204 4.198 20.241 1.477 40.53 2.095 61.077 4.542 0.882-4.117 1.941-8.604 2.841-13.13 4.767-24.399 8.571-48.957 10.946-73.717 1.621-16.927 3.162-33.868 4.302-50.835 1.476-22.006 2.103-44.053 1.444-66.108-0.85-29.061-4.060-57.817-11.846-85.908-3.739-13.427-8.539-26.429-15.344-38.604-4.141-7.432-8.941-14.374-15.089-20.305-1.941-1.87-4.141-2.688-6.757-3.081zM467.217 866.767c-58.685 16.083-117.433 31.926-176.149 47.841-4.141 1.124-8.331 2.063-12.488 3.090h-6.869c-0.963-0.265-1.911-0.626-2.889-0.794-17.4-2.978-29.679-12.608-36.758-29.029-0.514-1.18-0.947-2.391-1.46-3.563-12.857-29.591-24.671-59.599-35.586-89.984-10.273-28.555-19.968-57.319-27.737-86.693-11.428-43.187-17.288-87.351-21.268-131.782-1.589-17.705-2.343-35.49-3.21-53.259-1.397-28.242-0.898-56.453 2.215-84.583 2.264-20.401 5.827-40.529 11.653-60.2 5.795-19.47 13.548-38.051 25.264-54.704 6.677-9.518 14.27-18.138 24.414-24.069 0.192-0.105 0.24-0.441 0.434-0.859-22.505-80.016-45.041-160.185-67.624-240.475-1.236 0.265-1.975 0.393-2.696 0.577-12.424 3.235-24.863 6.365-37.24 9.736-10.401 2.834-19.101-3.716-21.332-11.397-0.273-0.939-0.963-1.75-1.461-2.624v-5.417c0.434-0.626 1.060-1.188 1.268-1.879 2.183-7.303 7.288-11.012 14.366-12.85 39.085-10.144 78.155-20.417 117.239-30.65 5.024-1.316 10.048-2.745 15.12-3.933 11.268-2.648 21.444 5.249 21.589 16.622 0.081 8.225-5.008 14.96-13.242 17.159-13.869 3.708-27.769 7.271-41.654 10.907-6.132 1.605-12.247 3.242-18.7 4.96 23.066 82.055 46.068 163.829 69.006 245.417 3.177 0.586 5.923 1.037 8.652 1.614 14.719 3.098 27.641 10.072 39.632 19.021 14.431 10.762 26.854 23.668 38.202 37.64 26.598 32.776 48.829 68.484 68.091 106.092 20.161 39.367 37.111 80.202 52.681 121.622 14.302 38.034 27.656 76.364 35.538 116.461 7.625 38.797 15.168 77.592 17.657 117.168 0.305 4.984 0.594 10.152-0.321 15-3.726 19.663-15.235 32.592-34.336 37.817zM443.653 673.636c-8.058-29.438-18.347-58.106-29.213-86.566-14.815-38.813-30.771-77.135-49.807-114.030-17.721-34.325-38.058-66.984-62.264-97.046-9.759-12.111-20.337-23.403-32.776-32.769-8.123-6.115-16.822-11.051-26.855-13.258-6.453-1.42-12.89-1.132-19.293 0.073-1.492 0.279-2.985 1.371-4.173 2.44-5.281 4.735-9.406 10.466-13.082 16.517-8.411 13.82-13.98 28.868-18.186 44.454-4.799 17.808-7.689 35.963-9.454 54.325-2.247 23.283-2.279 46.582-1.573 69.929 0.771 26.429 2.696 52.753 5.586 79.014 3.515 31.765 8.346 63.315 15.923 94.374 0.305 1.243 0.658 2.464 0.963 3.603 12.167-0.834 23.933-1.637 35.683-2.44 20.914-1.437 41.814-2.898 62.729-4.294 17.753-1.18 35.49-2.263 53.243-3.443 21.028-1.412 42.071-2.897 63.098-4.309 9.005-0.602 18.010-1.1 27.014-1.662 0.996-0.064 1.99-0.249 3.516-0.449-0.386-1.597-0.692-3.042-1.077-4.463zM467.859 820.41c-0.867-10.402-1.525-20.827-2.729-31.188-2.841-24.19-7.143-48.138-11.862-72.015-0.273-1.38-0.626-2.753-1.027-4.519-81.076 5.394-161.783 10.77-242.843 16.172 0.835 2.841 1.509 5.305 2.295 7.737 14.59 45.329 31.412 89.792 50.257 133.468 0.562 1.301 1.108 2.601 1.637 3.909 2.776 6.838 8.251 9.703 15.329 7.889 5.538-1.42 11.044-2.978 16.565-4.478 53.949-14.647 107.881-29.301 161.846-43.917 3.018-0.819 5.762-1.959 7.817-4.454 2.057-2.495 2.988-5.376 2.715-8.603z" />
<glyph unicode="&#xe913;" glyph-name="no" d="M150.378 86.378c-200.503 200.503-200.503 522.741 0 723.245s522.741 200.503 723.245 0 200.503-522.741 0-723.245-522.741-200.503-723.245 0zM787.692 107.86l-615.832 615.832c-143.217-171.86-128.895-422.49 28.643-587.189 164.699-157.538 415.329-171.86 587.189-28.643zM229.147 788.14l622.993-622.993c143.217 171.86 128.895 429.65-28.643 594.35-164.699 157.538-415.329 171.86-594.35 28.643z" />
<glyph unicode="&#xe914;" glyph-name="notes" d="M689.1 224.2h-354.3c-15.4 0-28-12.5-28-28 0-15.4 12.5-28 28-28h354.3c15.5 0 28 12.5 28 28s-12.5 28-28 28zM689.1 373.4h-354.3c-15.4 0-28-12.5-28-28 0-15.4 12.5-28 28-28h354.3c15.5 0 28 12.5 28 28s-12.5 28-28 28zM791.7 783.6h-83.9v55.9h-75.3c-24.3 33.4-68.9 56-120.5 56s-96.2-22.6-120.4-55.9h-75.4v-55.9h-83.9c-61.8 0-111.9-50.1-111.9-111.9v-559.4c0-61.8 50.1-111.9 111.9-111.9h559.4c61.8 0 111.9 50.1 111.9 111.9v559.4c0 61.8-50.1 111.8-111.9 111.8zM372.1 783.6h62.2c0 30.9 34.8 55.9 77.7 55.9s77.7-25 77.7-55.9h62.2v-111.9h-279.8v111.9zM847.6 112.4c0-30.9-25-55.9-55.9-55.9h-559.4c-30.9 0-55.9 25.1-55.9 55.9v559.4c0 30.9 25 56 55.9 56h83.9v-111.9h391.6v111.8h83.9c30.9 0 55.9-25.1 55.9-56v-559.3zM689.1 522.6h-354.3c-15.4 0-28-12.5-28-28 0-15.4 12.5-28 28-28h354.3c15.5 0 28 12.5 28 28s-12.5 28-28 28z" />
<glyph unicode="&#xe915;" glyph-name="parkingspace" d="M723.584 706.688c0 138.432-127.104 250.816-283.52 250.816h-409.92c-15.808-0.064-28.416-12.864-28.416-28.416v-963.2c0-15.729 12.751-28.48 28.48-28.48s28.48 12.751 28.48 28.48v0 489.92h381.312c156.288 0 283.52 112.384 283.52 250.816zM58.688 512.704v387.776h381.312c125.056 0 226.56-87.040 226.56-193.856 0-106.944-101.504-193.984-226.56-193.984h-381.312zM675.456 272.256c-56.64 0-102.72-45.888-102.72-102.4 0-0.448 0.512-0.832 0.512-1.28 0-0.576-0.512-0.896-0.512-1.408 0-11.904 9.6-21.248 21.376-21.248h162.56c0.038 0 0.083 0 0.128 0 11.7 0 21.184 9.484 21.184 21.184 0 0.023 0 0.045 0 0.068v-0.003c0 0.512-0.512 0.832-0.512 1.344 0.192 0.512 0.896 0.896 0.896 1.408 0 56.448-46.080 102.336-102.912 102.336zM619.52 188.288c7.825 24.033 29.96 41.124 56.11 41.28h0.018c26.432 0 48.256-17.536 56.32-41.28h-112.448zM942.464 204.928c-14.608 9.391-31.482 18.269-49.126 25.676l-2.202 0.82c-39.904 80.439-121.438 134.776-215.67 134.848h-0.010c-92.288 0-175.232-52.48-215.296-134.656-10.56-4.224-27.52-12.096-52.224-26.88-91.264-55.424-78.336-181.248-77.632-186.688 0.192-1.536 0.832-2.88 1.344-4.416 0.384-1.536 0.704-3.072 1.408-4.48 0.832-1.792 2.176-3.328 3.392-5.056 0.832-1.152 1.536-2.368 2.752-3.392 1.536-1.344 3.2-2.368 5.12-3.392 1.152-0.64 2.368-1.728 3.712-2.24 2.275-0.871 4.905-1.405 7.651-1.471l0.029-0.001c1.024-0.192 1.92-0.512 2.752-0.512h90.24c11.776-32.512 43.008-55.68 79.552-55.68 36.48 0 66.88 23.488 78.784 55.808h126.592c11.968-32.32 42.304-55.744 78.848-55.744 36.48 0 66.88 23.424 78.784 55.744h100.16c1.024 0 1.92 0.512 2.752 0.512 2.752 0.32 5.312 0.512 7.68 1.536 1.344 0.512 2.56 1.536 3.776 2.24 1.664 1.024 3.584 2.048 5.12 3.392 1.024 1.024 1.856 2.176 2.688 3.392 1.216 1.536 2.56 3.2 3.456 5.12 0.64 1.28 0.832 2.88 1.28 4.416 0.576 1.536 1.28 2.88 1.408 4.416 1.216 5.44 14.144 131.2-77.12 186.688zM528.896-5.952c-15.082 0.036-27.311 12.198-27.456 27.25v0.014c1.012 14.37 12.917 25.644 27.456 25.644s26.444-11.274 27.451-25.557l0.005-0.087c-0.18-15.052-12.388-27.193-27.449-27.264h-0.007zM607.744 49.856v0zM812.992-5.952c0 0-0.001 0-0.001 0-15.109 0-27.374 12.176-27.519 27.25v0.014c0 15.199 12.321 27.52 27.52 27.52s27.52-12.321 27.52-27.52v0c-0.18-15.074-12.425-27.229-27.517-27.264h-0.003zM891.968 50.048c-12.176 32.757-43.147 55.685-79.481 55.744h-0.007c-36.48 0-67.776-23.296-79.488-55.744h-125.952c-11.97 32.63-42.675 55.532-78.758 55.744h-0.026c-0.012 0-0.026 0-0.040 0-36.42 0-67.457-23.046-79.323-55.35l-0.188-0.586h-62.080c1.344 30.72 9.92 81.792 50.688 106.432 33.28 20.224 50.112 25.344 50.112 25.344 2.432 0.64 4.096 1.92 6.144 3.072 0.896 0.512 1.728 0.64 2.56 1.152 4.016 2.837 7.168 6.647 9.148 11.093l0.068 0.171c0.192 0.32 0.704 0.512 0.896 1.024 28.478 66.075 93.046 111.489 168.222 111.489 0.237 0 0.474 0 0.711-0.001h-0.037c72.128 0 138.048-42.496 167.36-108.288 0.192-0.512 0.64-0.832 1.024-1.344 2.88-8.32 9.216-15.488 18.56-18.176 0.192 0 17.28-5.12 50.368-25.344 40.768-24.832 49.28-75.712 50.688-106.432h-71.168zM891.776-7.168s0 0.64 0 0c0 0.64 0 0 0 0zM607.744-7.168s0 0.64 0 0c0 0.64 0 0 0 0z" />
<glyph unicode="&#xe916;" glyph-name="pet" d="M518.711 67.532c-151.81 0-242.478 64.373-242.478 172.339 0 131.976 132.721 238.252 242.478 238.252 114.329 0 254.009-109.955 254.009-238.252 0-127.056-131.131-172.339-254.009-172.339zM518.711 431.845c-86.194 0-191.477-88.63-191.477-191.974 0-113.732 133.914-126.062 191.477-126.062 47.719 0 203.107 9.098 203.107 126.062 0 105.929-122.977 191.974-203.107 191.974zM390.96 471.959c-66.609 0-118.704 76.252-118.704 173.382s52.094 173.233 118.704 173.233c66.708 0 119.001-76.104 119.001-173.233s-52.292-173.382-119.001-173.382zM390.96 772.446c-32.012 0-67.802-52.293-67.802-127.104s35.79-127.055 67.802-127.055c32.211 0 67.901 52.244 67.901 127.055s-35.69 127.104-67.901 127.104zM623.694 481.752c-66.708 0-118.902 76.104-118.902 173.383 0 97.179 52.194 173.332 118.902 173.332 66.609 0 118.703-76.153 118.703-173.332 0-97.28-52.093-173.383-118.703-173.383zM623.694 782.139c-32.211 0-67.901-52.144-67.901-127.004 0-74.911 35.69-127.104 67.901-127.104 31.912 0 67.703 52.194 67.703 127.104 0 74.86-35.791 127.004-67.703 127.004zM828.691 316.621c-59.849 0-106.873 67.653-106.873 153.847 0 86.344 47.024 153.897 106.873 153.897s106.773-67.554 106.773-153.897c0.001-86.194-46.924-153.847-106.773-153.847zM828.691 578.087c-26.346 0-55.772-45.98-55.772-107.619 0-61.538 29.427-107.568 55.772-107.568s55.673 46.030 55.673 107.568c0 61.638-29.327 107.619-55.673 107.619zM195.309 285.106c-59.948 0-106.773 67.603-106.773 153.847 0 86.293 46.825 153.947 106.773 153.947s106.773-67.653 106.773-153.947c0-86.244-46.825-153.847-106.773-153.847zM195.309 546.521c-26.345 0-55.772-45.98-55.772-107.568 0-61.489 29.427-107.519 55.772-107.519s55.773 46.029 55.773 107.519c0 61.589-29.428 107.568-55.773 107.568z" />
<glyph unicode="&#xe917;" glyph-name="position" d="M512.005 125.146c223.455 319.459 271.050 457.293 271.050 516.685 0 150.516-121.599 272.991-271.050 272.991-149.446 0-271.055-122.469-271.055-272.991 0-59.33 47.564-197.108 271.055-516.685zM512.005 45.741c-0.077 0-0.077 0.102 0 0.241 0.082-0.164 0.082-0.241 0-0.241zM512.005 45.982c-4.367 11.412-316.234 422.601-316.234 595.86 0 175.722 141.592 318.169 316.234 318.169s316.223-142.442 316.223-318.169c0-173.269-311.82-584.463-316.223-595.86zM662.030 111.261c-10.291 2.257-17.879 11.295-17.879 22.105 0 1.669 0.181 3.296 0.524 4.863l-0.028-0.15c2.262 10.292 11.304 17.881 22.118 17.881 1.665 0 3.287-0.18 4.85-0.521l-0.15 0.027c93.511-20.029 156.757-58.347 156.757-102.348 0-64.65-136.698-117.119-305.344-117.119-168.61 0-305.323 52.469-305.323 117.119 0 43.909 63.073 82.211 156.348 102.23 1.424 0.32 3.060 0.503 4.739 0.503 10.797 0 19.823-7.578 22.052-17.705l0.028-0.15c0.321-1.426 0.505-3.064 0.505-4.744 0-10.784-7.574-19.799-17.692-22.016l-0.149-0.027c-91.76-19.712-120.652-51-120.652-58.091 0-18.498 89.461-71.91 260.145-71.91 170.699 0 260.16 53.411 260.16 71.91 0.015 7.122-28.974 38.471-121.010 58.142zM515.779 573.659c47.211 0 85.636 38.83 85.636 86.578s-38.425 86.578-85.636 86.578c-47.232 0-85.662-38.83-85.662-86.578s38.441-86.578 85.662-86.578zM515.779 528.475c-72.258 0-130.84 58.982-130.84 131.757 0 72.78 58.572 131.762 130.84 131.762 72.237 0 130.81-58.982 130.81-131.762 0-72.775-58.567-131.757-130.81-131.757z" />
<glyph unicode="&#xe918;" glyph-name="preview" d="M512 768c-223.296 0-416.896-130.048-512-320 95.104-189.952 288.704-320 512-320s416.896 130.048 512 320c-95.104 189.952-288.704 320-512 320zM416 646.016c53.056 0 96-43.008 96-96 0-53.056-42.944-96-96-96s-96 42.944-96 96c0 52.992 42.944 96 96 96zM764.416 297.664c-75.52-48.192-162.88-73.664-252.416-73.664s-176.896 25.472-252.416 73.664c-60.16 38.4-111.168 89.856-149.44 150.336 38.272 60.48 89.28 111.936 149.44 150.336 3.904 2.496 7.872 4.928 11.84 7.296-9.984-27.328-15.424-56.832-15.424-87.616 0-141.376 114.624-256 256-256s256 114.624 256 256c0 30.784-5.44 60.224-15.424 87.552 3.968-2.368 7.936-4.736 11.84-7.232 60.16-38.4 111.168-89.792 149.44-150.336-38.272-60.48-89.28-111.936-149.44-150.336z" />
<glyph unicode="&#xe919;" glyph-name="room" d="M876.3 552.9l-324.3 327.1c-10.6 10.6-24.9 16.6-39.9 16.6s-29.4-6-39.9-16.6l-147.2-148.4v44.4c0 15.5-12.6 28.1-28.1 28.1s-28.1-12.6-28.1-28.1v-99.8c0-0.4 0.1-0.8 0.1-1.2l-121-122.1c-10.075-10.162-16.3-24.154-16.3-39.6 0 0 0 0 0 0v0-457.6c0-31 25.2-56.2 56.2-56.2h648.5c31 0 56.2 25.2 56.2 56.2v457.6c0 14.9-5.8 29.1-16.2 39.6zM739.6 55.7h-175.5v335.5h175.5v-335.5zM777.1 55.7v354.3c0 10.3-8.4 18.7-18.7 18.7h-213c-10.3 0-18.7-8.4-18.7-18.7v-354.2h-338.9v438.8h452.2c10.3 0 18.7 8.4 18.7 18.7s-8.4 18.7-18.7 18.7h-433.6l305.7 308.4 305.7-308.4h-69.8c-10.3 0-18.7-8.4-18.7-18.7s8.4-18.7 18.7-18.7h88.3v-438.8h-59.2zM449.9 428.7h-189.3c-10.3 0-18.7-8.4-18.7-18.7v-202.2c0-10.3 8.4-18.8 18.7-18.8h189.3c10.3 0 18.7 8.4 18.7 18.8v202.2c0 10.3-8.4 18.7-18.7 18.7zM431.1 226.5h-151.8v164.7h151.8v-164.7zM614 189c10.3 0 18.7 8.4 18.7 18.8v45.8c0 10.3-8.4 18.7-18.7 18.7s-18.7-8.4-18.7-18.7v-45.8c0-10.4 8.4-18.8 18.7-18.8z" />
<glyph unicode="&#xe91a;" glyph-name="shower" d="M972.8 908.8h-385.92c-55.52 0-100.48-44.96-100.48-100.48v-129.92h51.2v129.12c0 27.68 22.4 50.080 50.080 50.080h385.12v51.2zM128 396.8c-7.040 0-12.8 5.76-12.8 12.8v76.8c0 7.040 5.76 12.8 12.8 12.8s12.8-5.76 12.8-12.8v-76.8c0-7.040-5.76-12.8-12.8-12.8zM281.6 396.8c-7.040 0-12.8 5.76-12.8 12.8v76.8c0 7.040 5.76 12.8 12.8 12.8s12.8-5.76 12.8-12.8v-76.8c0-7.040-5.76-12.8-12.8-12.8zM435.2 396.8c-7.040 0-12.8 5.76-12.8 12.8v76.8c0 7.040 5.76 12.8 12.8 12.8s12.8-5.76 12.8-12.8v-76.8c0-7.040-5.76-12.8-12.8-12.8zM588.8 396.8c-7.040 0-12.8 5.76-12.8 12.8v76.8c0 7.040 5.76 12.8 12.8 12.8s12.8-5.76 12.8-12.8v-76.8c0-7.040-5.76-12.8-12.8-12.8zM742.4 396.8c-7.040 0-12.8 5.76-12.8 12.8v76.8c0 7.040 5.76 12.8 12.8 12.8s12.8-5.76 12.8-12.8v-76.8c0-7.040-5.76-12.8-12.8-12.8zM896 396.8c-7.040 0-12.8 5.76-12.8 12.8v76.8c0 7.040 5.76 12.8 12.8 12.8s12.8-5.76 12.8-12.8v-76.8c0-7.040-5.76-12.8-12.8-12.8zM128 192c-7.040 0-12.8 5.76-12.8 12.8v76.8c0 7.040 5.76 12.8 12.8 12.8s12.8-5.76 12.8-12.8v-76.8c0-7.040-5.76-12.8-12.8-12.8zM281.6 192c-7.040 0-12.8 5.76-12.8 12.8v76.8c0 7.040 5.76 12.8 12.8 12.8s12.8-5.76 12.8-12.8v-76.8c0-7.040-5.76-12.8-12.8-12.8zM435.2 192c-7.040 0-12.8 5.76-12.8 12.8v76.8c0 7.040 5.76 12.8 12.8 12.8s12.8-5.76 12.8-12.8v-76.8c0-7.040-5.76-12.8-12.8-12.8zM588.8 192c-7.040 0-12.8 5.76-12.8 12.8v76.8c0 7.040 5.76 12.8 12.8 12.8s12.8-5.76 12.8-12.8v-76.8c0-7.040-5.76-12.8-12.8-12.8zM742.4 192c-7.040 0-12.8 5.76-12.8 12.8v76.8c0 7.040 5.76 12.8 12.8 12.8s12.8-5.76 12.8-12.8v-76.8c0-7.040-5.76-12.8-12.8-12.8zM896 192c-7.040 0-12.8 5.76-12.8 12.8v76.8c0 7.040 5.76 12.8 12.8 12.8s12.8-5.76 12.8-12.8v-76.8c0-7.040-5.76-12.8-12.8-12.8zM128-12.8c-7.040 0-12.8 5.76-12.8 12.8v76.8c0 7.040 5.76 12.8 12.8 12.8s12.8-5.76 12.8-12.8v-76.8c0-7.040-5.76-12.8-12.8-12.8zM281.6-12.8c-7.040 0-12.8 5.76-12.8 12.8v76.8c0 7.040 5.76 12.8 12.8 12.8s12.8-5.76 12.8-12.8v-76.8c0-7.040-5.76-12.8-12.8-12.8zM435.2-12.8c-7.040 0-12.8 5.76-12.8 12.8v76.8c0 7.040 5.76 12.8 12.8 12.8s12.8-5.76 12.8-12.8v-76.8c0-7.040-5.76-12.8-12.8-12.8zM588.8-12.8c-7.040 0-12.8 5.76-12.8 12.8v76.8c0 7.040 5.76 12.8 12.8 12.8s12.8-5.76 12.8-12.8v-76.8c0-7.040-5.76-12.8-12.8-12.8zM742.4-12.8c-7.040 0-12.8 5.76-12.8 12.8v76.8c0 7.040 5.76 12.8 12.8 12.8s12.8-5.76 12.8-12.8v-76.8c0-7.040-5.76-12.8-12.8-12.8zM896-12.8c-7.040 0-12.8 5.76-12.8 12.8v76.8c0 7.040 5.76 12.8 12.8 12.8s12.8-5.76 12.8-12.8v-76.8c0-7.040-5.76-12.8-12.8-12.8zM870.56 704h-717.12c-56.48 0-102.24-45.76-102.24-102.24v-51.36h921.6v51.36c0 56.48-45.76 102.24-102.24 102.24zM921.6 601.76v-0.16l-819.2 0.16c0 28.16 22.88 51.040 51.040 51.040h717.12c28.16 0 51.040-22.88 51.040-51.040z" />
<glyph unicode="&#xe91b;" glyph-name="slippers" d="M317.44-64c-14.848 0-31.232 1.536-48.64 5.632-109.056 24.576-126.464 157.184-128.512 174.080l-67.072 342.528c-7.168 17.92-56.32 153.088-25.088 280.064 26.112 107.008 96.256 150.016 146.432 173.056 5.12 2.56 11.264 5.12 17.408 8.192 59.904 28.672 160.256 77.312 232.448-10.752 33.28-40.448 49.664-95.744 48.64-163.84-0.512-47.104-9.216-100.352-26.112-158.72-23.040-80.896-16.384-148.48 3.584-273.92 23.552-148.992 24.576-219.648 8.192-263.168-21.504-55.808-75.264-113.152-161.28-113.152zM278.528-14.848c86.528-19.456 138.24 28.16 158.208 79.872 11.776 31.744 12.288 93.696-10.752 240.64-18.944 120.32-28.672 200.704-2.048 292.864 25.6 89.088 44.032 210.432-14.336 282.112-46.080 56.32-108.032 32.768-178.176-1.024-6.144-3.072-12.288-5.632-17.92-8.704-67.072-31.232-104.96-75.264-121.856-143.36-29.184-119.296 23.552-253.44 24.064-254.464l0.512-2.048 0.512-1.536 68.096-346.624 0.512-1.536c-1.024-1.024 10.752-117.248 93.184-136.192zM252.416 738.304c-6.656 0-13.824 3.072-17.92 9.216-7.168 9.728-4.608 24.064 5.12 30.72l52.224 36.864c9.728 7.168 24.064 4.608 30.72-5.12 7.168-9.728 4.608-24.064-5.12-30.72l-52.224-36.864c-3.584-2.56-8.192-4.096-12.8-4.096zM135.68 156.672l-50.688 299.52v1.536c0.512 127.488 40.448 206.336 73.728 249.856 33.792 44.032 68.096 62.464 74.24 65.536 18.432 11.264 36.352 6.144 44.544-5.12 7.68-10.752 8.192-28.672-9.728-44.544-11.264-10.24-36.864-43.52-74.752-152.576-28.672-81.92-47.104-271.36-47.616-273.408l-9.728-140.8zM114.688 459.264l12.288-64c8.192 61.44 20.992 138.752 37.888 185.856 30.72 87.552 58.88 142.848 82.944 164.864 1.536 1.024 2.56 2.048 3.072 3.072-1.024-0.512-2.048-0.512-3.584-2.048l-2.048-1.024c-0.512-0.512-33.28-15.872-65.024-58.368-29.184-38.912-65.024-110.592-65.536-228.352zM449.024 230.912l-29.184 90.112c-33.28 102.912-84.992 259.584-88.064 267.776-5.12 12.288-53.76 111.616-80.384 133.12-19.456 11.776-23.040 29.184-17.408 40.96 5.632 12.288 21.504 20.48 41.472 13.824 18.432-2.048 124.928-24.064 172.032-250.368v-1.536l1.536-293.888zM262.656 750.080c0.512-0.512 2.048-1.536 4.096-2.56l1.536-1.024c36.352-27.648 90.112-144.896 90.624-145.92 2.56-6.144 34.304-102.912 59.392-179.712l-0.512 101.888c-23.552 113.664-62.464 168.96-91.136 195.584-30.208 27.648-54.272 29.696-55.296 29.696h-2.56l-2.048 0.512c-1.536 1.024-3.072 1.536-4.096 1.536zM706.56-64c-86.016 0-139.776 57.344-160.768 113.152-16.384 43.52-15.36 114.176 8.192 263.168 19.968 124.928 26.624 193.024 3.584 273.92-16.384 58.368-25.6 111.616-26.112 158.72-0.512 68.096 15.36 123.392 48.64 163.84 71.68 88.064 172.032 39.936 232.448 10.752 6.144-3.072 11.776-5.632 17.408-8.192 50.176-23.040 119.808-66.56 146.432-173.056 31.232-126.976-18.432-262.144-25.088-280.064l-67.072-342.528c-2.048-16.896-18.944-149.504-128.512-174.080-17.408-4.096-33.792-5.632-49.152-5.632zM683.52 914.944c-25.6 0-48.64-9.216-68.608-33.792-58.368-71.68-39.936-193.024-14.336-282.112 26.624-92.16 16.896-172.544-2.56-292.864-23.040-146.944-22.528-208.384-10.752-240.64 19.456-51.712 71.168-99.84 158.208-79.872 82.944 18.944 93.696 135.168 94.208 136.192l0.512 1.536v1.536l68.096 347.136 0.512 2.048c0.512 1.024 53.248 135.168 24.064 254.464-17.408 67.584-54.784 112.128-122.368 143.36-5.632 2.56-11.776 5.632-17.92 8.704-38.912 18.944-76.288 34.304-109.056 34.304zM771.584 738.304c-4.608 0-9.216 1.024-12.8 4.096l-52.224 36.864c-9.728 7.168-12.288 20.992-5.12 30.72s20.992 12.288 30.72 5.12l52.224-36.864c9.728-7.168 12.288-20.992 5.12-30.72-4.096-5.632-10.752-9.216-17.92-9.216zM888.32 156.672l-9.728 140.8c-0.512 1.536-18.432 190.976-47.616 273.408-37.888 108.544-63.488 141.824-74.752 152.576-17.92 15.872-17.408 33.792-9.728 44.544 8.192 10.752 26.112 15.872 44.544 5.12 6.144-3.072 40.448-20.992 74.24-65.536 33.28-43.52 72.704-121.856 73.728-249.856v-1.536l-50.688-299.52zM772.608 749.568c0.512-1.024 1.536-2.048 3.072-3.072 24.576-21.504 52.224-76.8 82.944-164.864 16.384-47.104 29.184-124.416 37.888-185.856l12.288 64c-0.512 117.248-36.352 188.928-66.048 228.864-32.256 43.008-65.024 58.368-65.024 58.368l-1.536 0.512c-1.536 1.024-2.56 1.536-3.584 2.048zM574.976 230.912l1.536 294.912v1.536c46.592 225.792 153.6 247.808 172.032 250.368 19.968 6.144 35.84-2.048 41.472-13.824s2.56-29.184-17.408-40.96c-26.624-20.992-75.264-120.32-80.384-133.12-3.072-8.192-54.272-164.352-88.064-267.776l-29.184-91.136zM606.208 522.752l-0.512-101.888c25.088 76.288 56.832 173.568 59.392 179.712 0.512 1.024 54.272 118.272 90.624 145.92l1.536 1.024c1.536 1.024 2.56 2.048 4.096 2.56-1.024 0-2.56-0.512-4.096-1.024l-2.048-0.512h-2.56c-1.536 0-25.6-2.048-55.296-29.696-28.16-26.624-67.072-81.92-91.136-196.096z" />
<glyph unicode="&#xe91c;" glyph-name="smoke" d="M148.8-50.3c-29.8 0-56.5 18.9-66.2 47.1l-48.4 139.6c-12.6 36.5 6.8 76.6 43.3 89.2l774.8 268.5c35.9 12.5 76.8-7.7 89.2-43.3l48.4-139.6c12.6-36.5-6.8-76.5-43.3-89.2l-774.9-268.5c-7.4-2.5-15.1-3.8-22.9-3.8zM875.2 442c-1.6 0-3.1-0.2-4.6-0.8l-774.8-268.5c-3.6-1.2-6.5-3.8-8.1-7.2-1.7-3.4-1.9-7.2-0.6-10.8l48.4-139.6c3-8.6 11.6-11.1 18-8.8l774.8 268.5c7.4 2.5 11.3 10.6 8.7 18l-48.4 139.6c-2.3 6.7-8.4 9.6-13.4 9.6zM336.7 12.3c-7.8 0-15.6 3.3-21.1 9.7-82.4 95.1-80.9 226.7-80.8 232.2 0.3 15.4 13.5 27.6 28.4 27.4 15.4-0.3 27.7-13 27.5-28.4 0-1.1-1-116 67.2-194.7 10.1-11.7 8.8-29.3-2.8-39.4-5.4-4.5-11.9-6.8-18.4-6.8zM821.5 344.9c-11.6 0-22.4 7.3-26.4 18.8l-18 52c-5.1 14.6 2.7 30.5 17.3 35.6 14.6 5 30.5-2.7 35.6-17.3l18-52c5-14.5-2.7-30.5-17.3-35.5-3.1-1.1-6.2-1.6-9.2-1.6zM874.1 298.3c-11.6 0-22.4 7.3-26.4 18.8l-18 51.9c-5.1 14.6 2.7 30.5 17.3 35.6 14.6 5 30.5-2.7 35.6-17.3l18-52c5-14.5-2.7-30.5-17.3-35.5-3.1-1-6.2-1.5-9.2-1.5zM926.8 251.8c-11.6 0-22.4 7.3-26.4 18.8l-18 52c-5.1 14.6 2.7 30.5 17.3 35.6 14.5 5 30.5-2.7 35.6-17.3l18-52c5-14.5-2.7-30.5-17.3-35.5-3.1-1.1-6.2-1.6-9.2-1.6zM731.3 492.1c-5.5 0-11 1.6-15.9 5-12.7 8.8-15.9 26.2-7.1 38.9 41.5 60.1 24.4 78.4 14.3 89.4-5.8 6.2-30.7 12-48.9 16.3-31.4 7.3-66.9 15.6-90.8 37.4-38.2 34.9-37.3 82.1-30.8 104.6 4.3 14.8 19.8 23.3 34.7 18.9 14.7-4.3 23.2-19.7 19-34.4-0.8-3.1-6.6-28.4 14.7-47.8 13.1-12 41.1-18.5 65.9-24.2 30.7-7.2 59.7-13.9 77.1-32.8 39.4-42.5 36.4-93-9.2-159.1-5.4-8-14.2-12.2-23-12.2zM847.9 544.3c-5.5 0-11 1.6-15.9 5-12.7 8.8-15.9 26.2-7.1 38.9 55.5 80.4 38.6 110.5 18.3 132.3-9.8 10.5-42.1 18.1-70.6 24.7-41.1 9.6-87.6 20.4-117.9 48-51.1 46.6-33.5 111.5-17 139.4 7.9 13.3 25 17.7 38.3 9.8 13.2-7.8 17.6-24.8 9.9-38.1-2.5-4.4-23-42.7 6.5-69.7 19.5-17.8 58.5-26.9 93-34.9 39.8-9.3 77.5-18.1 98.9-41.2 49.4-53.2 45.1-117.5-13.3-202-5.5-8-14.3-12.2-23.1-12.2z" />
<glyph unicode="&#xe91d;" glyph-name="soap" d="M738.956 588.893c0-18.406 15.088-33.327 33.699-33.327s33.699 14.921 33.699 33.327v0c0 18.406-15.088 33.327-33.699 33.327s-33.699-14.921-33.699-33.327v0zM902.679 764.742c-4.771 1.187-14.848 1.908-26.368 1.908-11.497 0-21.923-0.721-27.206-1.932-118.784-24.204-235.427-36.98-337.385-36.98-149.527 0-299.497 27.508-341.9 35.933-5.733 1.214-12.321 1.909-19.070 1.909-0.062 0-0.124 0-0.186 0h0.010c-38.633 0-76.684-20.852-92.579-50.711-7.215-13.786-11.449-30.113-11.45-47.429v0-438.807c0-0.059 0-0.129 0-0.2 0-17.449 4.242-33.906 11.75-48.399l-0.277 0.587c15.5-29.812 53.434-50.688 92.253-50.688 6.726 0 13.289 0.628 19.526 1.908 55.505 10.822 199.284 35.98 335.802 35.98 159.744 0 336.966-35.421 344.436-36.957 5.19-0.931 20.108-1.513 26.159-1.513 15.895 0 21.039 0.303 22.598 0.512 45.545 8.727 78.662 50.036 78.662 98.281v439.249c0 46.010-31.441 86.97-74.775 97.35zM925.417 233.984c0-26.415-28.044-49.641-54.225-54.784-0.349-0.116-2.257-0.675-9.565-0.675-5.027 0-11.055 0.279-13.987 0.652-44.823 8.657-201.332 36.887-342.039 36.887-137.379 0-278.993-25.135-333.521-35.956-3.514-0.768-7.447-1.187-11.613-1.187-19.805 0-46.057 9.775-55.715 27.881-4.062 7.628-6.448 16.682-6.448 26.292 0 0.117 0 0.233 0.001 0.35v-0.018 428.497c0 9.868 2.188 18.828 6.516 26.647 9.519 17.967 35.98 27.671 56.087 27.671 3.956 0 7.703-0.349 11.148-1.047 54.365-10.752 196.305-35.793 339.735-35.793 136.169 0 268.428 23.11 335.151 36.887 3.941 0.541 8.496 0.849 13.123 0.849 4.563 0 9.056-0.3 13.46-0.882l-0.517 0.056c25.437-6.004 52.364-29.254 52.364-54.388v-427.939zM651.613 579.095c-41.146-13.172-101.329-20.41-169.635-20.41-86.575-0.023-171.287 11.916-226.583 31.907-2.425 0.92-5.228 1.453-8.156 1.453-10.047 0-18.629-6.273-22.044-15.115l-0.055-0.161c-0.884-2.362-1.396-5.091-1.396-7.939 0-10.049 6.369-18.611 15.291-21.868l0.162-0.052c60.183-21.76 150.807-34.723 242.362-34.723h0.023c73.332 0 138.868 8.052 184.483 22.691 4.037-3.519 9.35-5.664 15.165-5.664 12.776 0 23.133 10.357 23.133 23.133s-10.357 23.133-23.133 23.133c-2.090 0-4.115-0.277-6.041-0.797l0.162 0.037c-4.194 3.58-9.678 5.759-15.672 5.759-2.891 0-5.664-0.507-8.235-1.437l0.169 0.053z" />
<glyph unicode="&#xe91e;" glyph-name="suitableforchildren" d="M978.247 192.726c-17.43 11.62-39.58 14.888-58.099 8.352-18.882-6.173-38.491-11.983-59.189-17.067l-3.268 39.217c-3.994 58.826-9.804 147.427-79.523 271.251-2.905 4.357-5.084 9.078-5.084 10.167 0 2.542 1.816 10.167 18.519 23.603 14.525 13.072 18.519 15.977 25.782 17.067 3.994-4.357 10.53-14.888 22.513-35.949 18.156-30.502 50.111-42.485 87.875-33.044 33.044 7.989 68.63 34.86 68.63 64.999 0 14.888-3.994 35.586-7.989 55.921-3.994 18.156-12.346 55.557-7.989 68.63 2.542 11.62 8.715 19.245 14.162 25.782l0.726 0.726c6.899 7.989 13.799 16.34 15.251 27.96v6.899c-4.721 30.139-77.345 87.512-155.416 122.372-82.428 39.217-162.678-16.34-205.889-76.255-27.96-40.306-46.116-72.624-63.546-103.852l-5.447-10.167c-3.994-6.899-7.989-14.162-11.62-21.061-3.631-6.536-7.262-13.435-10.894-19.972-18.519 5.447-28.687 7.989-80.613 6.536-66.814-1.452-109.299-22.513-129.634-33.044l-2.179-1.089-0.363-0.363c-0.363-0.363-1.089-1.089-1.816-1.089-2.542 0.726-193.543 64.635-292.312-75.892-5.084-7.262-5.447-10.894-10.894-24.329-14.162-36.312-2.542-55.557 9.804-64.999 34.133-34.133 81.702-73.713 114.746-67.904 11.983 1.452 22.15 9.078 27.96 21.061 15.977 34.496 34.86 54.468 49.384 65.362-29.413-56.647-47.932-142.706-54.468-255.637-0.363-2.179-0.363-4.357-0.726-5.81-25.418 6.173-49.021 12.709-71.898 20.335-18.156 6.536-40.67 3.268-58.099-8.352-13.799-9.804-22.15-24.692-22.15-40.306v-31.228c0-20.698 13.435-38.491 34.496-47.206 117.651-45.39 276.335-70.445 447.001-70.445 169.94 0 329.713 25.055 449.906 70.445 20.335 6.899 34.86 26.145 34.86 47.206v31.228c0 15.251-8.352 30.502-22.513 39.943zM230.218 183.648c15.614 242.201 78.434 278.513 81.702 280.329 10.167 1.452 15.614 11.983 15.614 21.787-1.452 10.53-9.078 18.519-18.519 19.972-0.726 0.363-94.411 14.525-153.963-107.847-11.62 3.268-41.759 22.15-74.077 56.284l-1.089 1.089c0 1.452-0.363 6.899 3.994 17.793 3.994 11.983 5.084 14.525 9.441 21.424 76.255 87.512 169.94 70.809 253.458 51.926 6.899 0 13.799 2.905 22.15 6.899l3.631 1.816c18.882 8.715 54.105 25.418 109.662 26.508 48.658 0 55.194-1.452 68.63-5.447 3.994-1.452 9.441-2.905 16.34-3.994 8.352-1.452 18.519 1.089 22.877 10.167 7.989 12.709 15.251 25.418 22.15 38.128 3.631 6.173 6.899 12.709 10.53 18.882 2.905 5.084 5.81 10.167 8.352 15.251 15.977 28.687 32.681 58.826 57.736 94.411 52.289 73.713 111.841 80.25 149.969 61.73 68.267-31.591 114.020-69.356 127.455-86.786l-3.268-3.268-1.089-1.452c-6.899-7.989-17.067-20.335-22.15-39.58-6.536-21.424-0.363-53.016 6.173-86.060l0.363-2.179c1.089-6.899 2.179-13.435 3.268-19.609 1.816-11.62 3.631-21.424 3.631-27.234-1.089-6.173-18.519-22.15-42.485-26.145-22.877-3.631-30.865 7.989-33.77 12.709l-1.089 1.452c-21.061 35.949-36.675 61.73-62.82 56.284-19.609-4.357-29.050-8.352-50.474-27.234-22.15-19.245-33.044-37.401-33.044-55.194 0-10.53 3.631-18.882 7.262-26.871 0.726-1.452 1.452-3.268 2.179-5.084 64.635-116.199 70.082-195.722 74.077-253.821l0.363-3.994c0.726-5.81 1.089-11.62 1.452-16.704 0.363-5.81 0.726-11.257 1.452-17.067l0.726-8.352c-12.346-2.542-25.055-5.084-38.128-7.262-58.826 112.567-152.511 179.745-250.916 179.745-100.948 0-195.722-68.267-253.821-183.013-16.704 2.542-29.050 4.721-44.664 7.989 0.363 5.447 0.363 7.262 0.726 11.62zM734.956 159.319c-68.63-9.804-142.343-14.888-217.509-14.888-67.54 0-134.355 4.357-197.174 12.346 51.2 91.87 127.818 146.338 208.068 146.338 79.16 0 155.416-53.742 206.616-143.796zM957.549 121.555c0-2.179-2.179-5.81-7.262-6.899-117.288-43.574-270.888-67.54-432.84-67.54-163.404 0-317.004 23.966-432.84 67.54-5.084 1.089-7.262 4.721-7.262 6.899v31.228c0 2.179 2.542 4.721 3.631 5.81 2.542 2.542 6.173 3.631 11.257 3.631 2.542 0 5.084 0 10.53-1.452 116.562-38.491 264.352-59.552 415.773-59.552s299.211 21.061 415.773 59.552c7.989 2.542 15.977-0.363 18.882-2.542 1.089-1.089 3.631-3.631 3.631-5.81v-30.865z" />
<glyph unicode="&#xe91f;" glyph-name="suitablefordisabledpeople" d="M362.496 2.048c-132.096 0-239.104 105.984-239.104 237.568 0 71.68 32.768 136.192 83.968 179.712l-4.608 74.24c-85.504-53.248-142.848-146.432-142.848-253.952 0-165.888 135.168-300.032 302.080-300.032 122.88 0 228.352 73.728 275.456 178.176l-42.496 73.216c-22.528-108.032-117.76-188.928-232.448-188.928zM314.88 953.344c-55.808 0-101.376-44.544-101.376-100.352 0-54.784 45.568-100.352 101.376-100.352 56.32 0 101.376 45.568 101.376 100.352 0 55.808-45.568 100.352-101.376 100.352zM311.808 795.648c-33.792 0-60.928 27.648-60.928 60.416 0 33.792 27.136 60.416 60.928 60.416s60.928-27.136 60.928-60.416c0-32.768-27.136-60.416-60.928-60.416zM968.704 50.688l-175.616 283.136c-11.264 17.92-35.84 44.032-74.752 44.032h-241.152l-5.632 64h177.152c40.96 0 57.344 31.744 57.344 57.856 0 36.352-30.208 60.928-61.952 60.928h-182.784l-8.192 70.656c-4.096 53.248-41.472 95.232-117.248 95.232-57.856-3.072-103.936-49.664-101.376-103.424l18.944-308.224c4.608-54.272 53.248-98.816 110.080-98.816h317.44l139.776-231.424c18.432-34.816 74.752-52.224 115.712-33.28 41.472 18.432 48.64 70.144 32.256 99.328zM908.288 0.512c-34.304-10.752-43.52 17.408-56.32 37.376l-146.944 222.208-337.408 3.584c-42.496 0-61.44 31.744-65.024 72.704l-20.992 262.144c-2.048 40.96 13.824 80.896 57.344 82.944 43.008 2.048 66.56-28.16 69.632-68.608l11.264-89.088 205.312 1.024c20.48-0.512 39.424-0.512 39.424-19.968 0-17.92-16.896-18.432-36.864-19.456l-204.8-0.512 13.312-148.992 256.512-1.024c15.36-0.512 53.248-9.216 71.168-41.472l143.36-227.328c13.312-22.528 28.672-48.128 1.024-65.536z" />
<glyph unicode="&#xe920;" glyph-name="suitableforoldpeople" d="M627.481 527.508c-26.366 0-52.733 5.723-77.26 17.373-41.696 19.417-73.785 52.937-91.567 95.042l-47.828-17.373c-22.892-8.38-48.236 3.475-56.616 26.366l-2.248 6.132c-4.088 11.037-3.475 23.096 1.431 33.725s13.899 18.804 24.936 22.892l32.498 11.855-10.833 76.034c-9.606 29.637 5.927 61.726 35.36 72.559l228.509 82.983c29.432 10.628 61.931-3.883 73.581-32.907l40.674-65.201 32.498 11.855c11.037 4.088 23.096 3.475 33.725-1.431s18.804-13.899 22.892-24.936l2.248-6.132c4.088-11.037 3.475-23.096-1.431-33.725s-13.899-18.804-24.936-22.892l-40.469-14.716c28.819-92.794-20.235-192.945-112.415-226.465-20.439-7.358-41.491-11.037-62.748-11.037zM492.174 649.939c14.512-32.498 40.061-58.456 72.763-73.785 35.973-16.76 76.238-18.6 113.642-4.905 73.581 26.775 113.233 105.875 92.18 180.069l-278.585-101.378zM825.741 836.752c-1.022 0-2.044-0.204-3.066-0.613l-432.492-157.381c-3.066-1.226-4.701-3.475-5.314-4.905-0.613-1.226-1.431-4.088-0.409-7.154l2.248-6.132c1.84-4.701 7.154-7.358 12.059-5.519l432.492 157.381c3.066 1.226 4.701 3.475 5.314 4.905 0.613 1.226 1.431 4.088 0.409 7.154l-2.248 6.132c-1.226 3.066-3.475 4.701-4.905 5.314-0.818 0.204-2.248 0.818-4.088 0.818zM683.689 923.823c-2.657 0-5.314-0.409-7.971-1.431l-228.509-83.187c-12.059-4.292-18.191-17.782-13.899-29.841l0.613-1.635 10.015-70.311 299.638 109.145-37.404 60.091-0.613 1.635c-3.475 9.606-12.468 15.534-21.87 15.534zM753.182 310.036c-16.556 0-32.498-3.27-47.010-9.402v-46.397c13.285 9.402 29.637 14.921 47.010 14.921 44.966 0 81.756-36.79 81.756-81.756v-251.401h40.878v251.401c0 67.449-55.186 122.635-122.635 122.635zM682.258 406.509c-33.929 0-61.317-27.388-61.317-61.317s27.388-61.317 61.317-61.317 61.317 27.388 61.317 61.317-27.593 61.317-61.317 61.317zM682.258 324.752c-11.242 0-20.439 9.198-20.439 20.439s9.198 20.439 20.439 20.439 20.439-9.198 20.439-20.439-9.198-20.439-20.439-20.439zM180.886 402.83v0.409c47.828 70.311 128.358 116.299 219.721 116.299 104.648 0 194.989-60.295 238.32-148.184h44.966c-46.192 110.984-155.542 189.062-283.286 189.062-117.116 0-218.699-65.61-270.41-162.082-58.66-86.457-92.794-190.901-92.794-303.317 0-54.572 8.176-107.305 23.096-156.972h3.883v-1.022h551.856v286.148h-40.878v-245.269h-483.385c-8.993 37.608-13.899 76.647-13.899 117.116 0 107.714 33.929 207.253 91.772 289.009l-0.818 0.613c1.635 2.861 3.27 5.723 5.11 8.584l6.745 9.606zM587.216 209.884c-10.22 4.701-14.921 16.76-10.22 26.98l41.083 91.363c4.701 10.22 16.76 14.921 26.98 10.22s14.921-16.76 10.22-26.98l-41.083-91.363c-4.497-10.22-16.556-14.716-26.98-10.22z" />
<glyph unicode="&#xe921;" glyph-name="toiletpaper" d="M196.032 591.744c0-56.094 12.98-101.568 28.992-101.568s28.992 45.474 28.992 101.568v0c0 56.094-12.98 101.568-28.992 101.568s-28.992-45.474-28.992-101.568v0zM889.792 831.744c-17.728 19.776-37.632 32-59.008 32h-605.76c-21.44 0-41.28-12.224-59.008-32-35.328-39.36-60.8-112.064-67.008-198.976-0.96-13.44-1.92-26.944-1.92-41.024v-624h32v445.824c10.368-25.28 22.848-46.080 36.992-61.824 17.728-19.776 37.632-32 59.008-32h574.72v-352h32v352.192c11.136 0.192 21.696 4.224 32 10.048 9.152 5.184 17.792 12.544 26.048 21.696 40.832 45.44 68.992 135.296 68.992 240s-28.288 194.624-69.056 240.064zM225.024 351.744c-40.064 0-96 91.328-96 240s55.936 240 96 240 96-91.328 96-240-55.936-240-96-240zM863.744 369.728c-10.88-11.264-21.888-17.344-32-17.664-0.32 0-0.704-0.256-1.024-0.256h-546.688c40.832 45.44 68.992 135.296 68.992 240s-28.16 194.56-68.992 240h546.688c40.064 0 96-91.328 96-240 0-110.336-30.72-188.8-62.976-222.080zM160.384 30.72h51.2v-32h-51.2v32zM253.184 30.72h51.2v-32h-51.2v32zM345.92 30.72h51.2v-32h-51.2v32zM438.72 30.72h51.2v-32h-51.2v32zM531.52 30.72h51.2v-32h-51.2v32zM624.256 30.72h51.2v-32h-51.2v32zM717.056 30.72h51.2v-32h-51.2v32z" />
<glyph unicode="&#xe922;" glyph-name="toiletries" d="M129.005 218.205v-209.638h556.346v209.638h-556.346zM96.753 266.583h620.85c8.906 0 16.126-7.22 16.126-16.126v0-274.142c0-8.906-7.22-16.126-16.126-16.126v0h-620.85c-8.906 0-16.126 7.22-16.126 16.126v0 274.142c0 8.906 7.22 16.126 16.126 16.126v0zM80.627 133.543c-13.359 0-24.189 10.83-24.189 24.189s10.83 24.189 24.189 24.189h645.039c13.359 0 24.189-10.83 24.189-24.189s-10.83-24.189-24.189-24.189h-645.039zM370.895 693.921v-370.898c0-13.359-10.83-24.189-24.189-24.189s-24.189 10.83-24.189 24.189v0 395.087c0 13.359 10.83 24.189 24.189 24.189h274.142c13.359 0 24.189-10.83 24.189-24.189v-395.087c0-13.359-10.83-24.189-24.189-24.189s-24.189 10.83-24.189 24.189v0 370.898h-225.764zM356.93 428.479c-2.911-1.339-6.315-2.12-9.903-2.12-13.359 0-24.189 10.83-24.189 24.189 0 9.523 5.503 17.76 13.502 21.706l0.142 0.063c63.012 29.398 105.399 59.908 127.266 90.523 4.441 6.167 11.601 10.135 19.688 10.135 7.61 0 14.399-3.514 18.834-9.009l0.036-0.046c30.962-38.598 73.922-71.357 129.121-98.199 8.123-4.016 13.611-12.244 13.611-21.754 0-13.36-10.83-24.19-24.19-24.19-3.849 0-7.489 0.899-10.72 2.499l0.141-0.063c-50.974 24.786-93.192 54.603-126.492 89.499-28.809-29.648-71.108-57.231-126.847-83.234zM701.478 581.039v-264.224c0-13.359-10.83-24.189-24.189-24.189s-24.189 10.83-24.189 24.189v0 288.413c0 13.359 10.83 24.189 24.189 24.189v0h258.016c13.359 0 24.189-10.83 24.189-24.189v-645.039c0-13.359-10.83-24.189-24.189-24.189h-150.157c-13.359 0-24.189 10.83-24.189 24.189s10.83 24.189 24.189 24.189h125.968v596.661h-209.638zM688.246 372.393c-3.164-1.625-6.903-2.577-10.864-2.577-13.359 0-24.189 10.83-24.189 24.189 0 9.324 5.276 17.416 13.005 21.454l0.134 0.064c57.86 29.398 97.796 59.932 119.953 90.902 4.442 6.155 11.595 10.114 19.672 10.114 7.601 0 14.382-3.506 18.817-8.988l0.036-0.046c31.301-38.944 71.874-71.825 121.929-98.659 7.652-4.164 12.758-12.145 12.758-21.319 0-13.36-10.831-24.191-24.191-24.191-4.187 0-8.125 1.064-11.56 2.936l0.127-0.063c-46.040 24.689-85.25 54.288-117.526 88.806-27.753-29.317-67.149-56.739-118.099-82.621zM931.184 206.852c3.491 2.069 7.694 3.292 12.183 3.292 13.36 0 24.191-10.831 24.191-24.191 0-8.871-4.775-16.627-11.896-20.838l-0.112-0.062c-62.004-36.154-102.513-69.003-121.308-97.304-9.764-14.707-31.502-14.328-40.75 0.71-14.231 23.133-38.082 44.677-71.922 64.367-7.352 4.243-12.22 12.063-12.22 21.020 0 13.359 10.83 24.189 24.189 24.189 4.56 0 8.826-1.262 12.466-3.456l-0.109 0.061c28.148-16.368 51.144-34.421 68.858-54.232 26.043 27.721 64.826 56.352 116.43 86.435zM782.107 685.858v-80.63c0-13.359-10.83-24.189-24.189-24.189s-24.189 10.83-24.189 24.189v0 104.819c0 13.359 10.83 24.189 24.189 24.189v0h112.882c13.359 0 24.189-10.83 24.189-24.189v0-104.254c0-13.359-10.83-24.189-24.189-24.189s-24.189 10.83-24.189 24.189v0 80.066h-64.504zM419.273 758.425v-40.138c0-13.359-10.83-24.189-24.189-24.189s-24.189 10.83-24.189 24.189v0 64.327c0 13.359 10.83 24.189 24.189 24.189h177.386c13.359 0 24.189-10.83 24.189-24.189v-64.504c0-13.359-10.83-24.189-24.189-24.189s-24.189 10.83-24.189 24.189v0 40.315h-129.008zM511.997 782.614c0-13.359-10.83-24.189-24.189-24.189s-24.189 10.83-24.189 24.189v0 129.008c0 13.359 10.83 24.189 24.189 24.189s24.189-10.83 24.189-24.189v0-129.008zM595.627 952.856c4.352 4.238 10.305 6.851 16.867 6.851 13.359 0 24.189-10.83 24.189-24.189 0-6.506-2.569-12.413-6.748-16.76l0.008 0.008c-16.989-17.094-40.541-26.648-69.672-29.196-0.631-0.060-1.366-0.095-2.11-0.097h-76.561c-26.172 0-42.637 2.419-59.295 7.531-1.871 0.581-7.676 2.443-8.756 2.774-6.265 1.935-10.369 2.637-17.102 2.637-7.152 0-16.368-3.935-25.963-10.917-5.097-3.756-9.592-7.72-13.718-12.039l-0.038-0.040c-4.451-4.989-10.899-8.115-18.077-8.115-13.361 0-24.192 10.831-24.192 24.192 0 6.183 2.32 11.825 6.136 16.101l-0.021-0.024c4.515 5.080 11.836 12.046 21.439 19.029 17.11 12.457 35.219 20.19 54.425 20.19 11.933 0 20.73-1.508 31.341-4.773 1.476-0.46 7.249-2.314 8.708-2.758 12.014-3.685 23.705-5.402 45.112-5.402h75.47c17.956 1.709 30.502 6.886 38.565 14.997z" />
<glyph unicode="&#xe923;" glyph-name="towel" d="M246.232 319.818h451.94v-31.995h-451.94v31.995zM246.232 415.822h451.94v-32.002h-451.94v32.002zM891.864 831.819v39.865c0 48.688-34.713 88.316-77.44 88.316h-555.264c-42.754 0-77.468-39.628-77.468-88.316v-39.94h-129.126v-31.996h129.126v-640.004h129.126v-223.744h581.046v863.823h96.847v31.996h-96.847zM213.973 191.717v679.967c0 31.023 20.248 56.316 45.214 56.316h489.57c-11.421-15.496-18.278-34.966-18.278-56.038 0-0.098 0-0.195 0-0.293v0.015-679.966h-516.506zM859.585-8.732h-516.513v168.556h419.666v639.999h96.841v-808.555h0.006zM859.585 831.744h-96.847v39.934c0 30.723 19.889 55.527 44.414 56.117v0.205h7.246c24.911 0 45.187-25.293 45.187-56.321v-39.935z" />
<glyph unicode="&#xe924;" glyph-name="traffic" horiz-adv-x="1025" d="M384.009 768.008c0-70.722 57.281-128.003 128.003-128.003s128.003 57.281 128.003 128.003c0 70.722-57.281 128.003-128.003 128.003s-128.003-57.281-128.003-128.003zM512.012 832.009c35.265 0 64.002-28.737 64.002-64.002s-28.737-64.002-64.002-64.002-64.002 28.737-64.002 64.002 28.737 64.002 64.002 64.002zM512.012 576.003c-70.722 0-128.003-57.281-128.003-128.003s57.281-128.003 128.003-128.003 128.003 57.281 128.003 128.003c0 70.722-57.281 128.003-128.003 128.003zM512.012 383.998c-35.265 0-64.002 28.737-64.002 64.002s28.737 64.002 64.002 64.002 64.002-28.737 64.002-64.002-28.737-64.002-64.002-64.002zM640.016 127.992c0 70.722-57.281 128.003-128.003 128.003s-128.003-57.281-128.003-128.003c0-70.722 57.281-128.003 128.003-128.003s128.003 57.281 128.003 128.003zM512.012 63.991c-35.265 0-64.002 28.737-64.002 64.002s28.737 64.002 64.002 64.002 64.002-28.737 64.002-64.002-28.737-64.002-64.002-64.002zM768.339 191.994v192.005l255.686 128.003h-255.686v192.005l255.686 128.003h-255.686v128.003h-512.012v-128.003h-256.326l256.326-128.003v-192.005h-256.326l256.326-128.003v-192.005h-256.326l256.326-128.003v-128.003h512.012v128.003l255.686 128.003h-255.686zM704.337-0.011h-384.009v896.022h384.009v-896.022z" />
<glyph unicode="&#xe925;" glyph-name="tv" d="M242.944 563.136h89.28l-39.744-222.4h100.736l38.848 222.4h90.176l13.952 79.552h-279.232l-14.016-79.552zM677.184 442.112l-17.344 200.576h-101.12l50.752-301.888h100.736l159.552 301.888h-100.736l-91.84-200.576zM675.968 108.8h-323.136c-15.744 0-28.48-12.608-28.48-28.224 0-15.552 12.8-28.224 28.48-28.224h323.136c15.68 0 28.48 12.672 28.48 28.224 0 15.616-12.736 28.224-28.48 28.224v0 0zM990.464 843.712h-956.928c-20.928 0-33.536-12.48-33.536-33.344v-608c0-20.8 20.992-33.344 41.92-33.344h948.48c20.992 0 33.536 12.416 33.536 33.344v608c0.128 20.8-12.416 33.344-33.472 33.344v0 0zM973.696 235.712c0-10.432-6.336-16.704-16.832-16.704h-889.728c-10.496 0-16.768 6.336-16.768 16.704v541.376c0 10.432 6.272 16.64 16.768 16.64h889.728c10.496 0 16.832-6.272 16.832-16.64v-541.376z" />
<glyph unicode="&#xe926;" glyph-name="users" d="M359.936 429.056s0 0.512 0 0c0 13.312-10.752 23.552-24.064 23.552-87.040 0-157.696 73.728-157.696 164.352s70.656 164.352 157.696 164.352c13.312 0 24.064 10.24 24.064 23.552 0 12.8-10.752 23.552-24.064 23.552-113.152 0-205.312-94.72-205.312-210.944 0-77.824 40.96-145.408 101.888-182.272-129.536-44.544-223.232-170.496-223.232-318.464 0-12.8 10.752-23.552 24.064-23.552s24.064 10.24 24.064 23.552c0 159.744 124.928 289.28 278.528 289.28 13.312 0 24.064 10.24 24.064 23.040zM733.696 418.816c77.824 41.472 130.56 121.856 130.56 214.528 0 135.168-112.64 244.736-250.88 244.736s-250.88-110.080-250.88-244.736c0-93.184 53.76-174.592 132.608-216.064-164.352-49.152-284.16-198.656-284.16-375.296 0-12.8 10.752-23.552 24.064-23.552s24.064 10.24 24.064 23.552c0 190.464 158.72 345.6 352.768 345.6 1.536 0 3.072 0 4.608 0.512 2.048-0.512 4.608-0.512 6.656-0.512 193.536 0 352.768-155.136 352.768-345.6 0-12.8 10.752-23.552 24.064-23.552s24.064 10.24 24.064 23.552c0 178.688-122.88 329.216-290.304 376.832zM613.376 435.2c-112.128 0-202.752 89.088-202.752 198.144s91.136 198.144 202.752 198.144c112.128 0 202.752-89.088 202.752-198.144 0.512-109.568-90.624-198.144-202.752-198.144z" />
<glyph unicode="&#xe927;" glyph-name="washer" d="M807.738 894.71h-591.476c-62.82 0-113.746-50.926-113.746-113.746v-72.38c0-0.001 0-0.002 0-0.002s0-0.002 0-0.002v-593.542c0-62.82 50.926-113.746 113.746-113.746h591.476c62.82 0 113.746 50.926 113.746 113.746v665.927c0 62.82-50.925 113.746-113.746 113.746zM216.261 853.348h591.476c39.976 0 72.384-32.407 72.384-72.384v-51.703h-736.243v51.703c0 39.976 32.407 72.384 72.384 72.384zM807.738 42.653h-591.476c-39.976 0-72.384 32.407-72.384 72.384v572.863h736.243v-572.863c0-39.976-32.407-72.384-72.384-72.384zM513.010 637.473c-150.527 0-272.989-122.462-272.989-272.989s122.462-272.989 272.989-272.989 272.989 122.462 272.989 272.989-122.463 272.989-272.989 272.989zM513.010 596.111c112.077 0 205.808-80.017 227.089-185.922-1.707-1.235-3.257-2.747-4.568-4.538-0.139-0.19-14.198-19.249-38.026-38.533-21.305-17.24-54.702-37.792-92.808-37.792-37.22 0-63.742 19.558-91.818 40.263-29.685 21.893-60.382 44.529-103.963 44.529-53.659 0-99.682-35.347-127.166-62.56-0.236 4.279-0.367 8.588-0.367 12.925 0 127.72 103.908 231.627 231.627 231.627zM513.010 132.858c-105.229 0-194.281 70.541-222.385 166.813 11.51 14.455 61.7 73.087 118.291 73.087 29.979 0 52.887-16.894 79.414-36.456 30.723-22.656 65.545-48.336 116.367-48.336 61.901 0 111.732 38.068 139.675 65.594-5.726-122.666-107.307-220.702-231.362-220.702zM254.497 757.423c17.106 0 31.022 13.916 31.022 31.022s-13.916 31.022-31.022 31.022-31.022-13.916-31.022-31.022 13.916-31.022 31.022-31.022zM357.902 757.423c17.106 0 31.022 13.916 31.022 31.022s-13.917 31.022-31.022 31.022-31.022-13.916-31.022-31.022 13.916-31.022 31.022-31.022z" />
<glyph unicode="&#xe928;" glyph-name="wirednetwork" d="M427 416c0-17.7-14.3-32-31.9-32s-31.9 14.3-31.9 32 14.3 32 31.9 32c17.6 0 31.9-14.4 31.9-32zM299.1 416c0-17.7-14.3-32-31.9-32s-31.9 14.3-31.9 32 14.3 32 31.9 32c17.6 0 31.9-14.4 31.9-32zM959.9 198.9v-44.9c0-37.8-31.3-68.6-69.9-68.6h-79.2v-63.8c0-11.8-9.5-21.3-21.3-21.3s-21.3 9.5-21.3 21.3v63.8h-85.2v-63.8c0-11.8-9.5-21.3-21.3-21.3s-21.3 9.5-21.3 21.3v63.8h-85.2v-63.9c0-11.8-9.5-21.3-21.3-21.3s-21.3 9.5-21.3 21.3v63.9l-383.6 0.1c-38.6 0-63.9 26.1-63.9 64v42.7c-0.1 3.2-2 15.8 0 42.7 0.7 11.3 9.8 21.2 21.3 21.3h767.2c18.1 0 22.4-14.7 21.3-21.3-0.3-1.6-4.2-21.4-21.3-21.3h-746c-0.5-14.5 0-21.2 0-21.3v-42.7c0-13.8 7.1-21.3 21.3-21.3h383.6v21.3c-11.8 0-21.3 9.6-21.3 21.3 0 11.8 9.5 21.3 21.3 21.3h42.6c11.8 0 21.3-9.5 21.3-21.3s-9.5-21.3-21.3-21.3v-21.3h85.2v21.3c-11.8 0-21.3 9.6-21.3 21.3 0 11.8 9.5 21.3 21.3 21.3h42.6c11.8 0 21.3-9.5 21.3-21.3s-9.5-21.3-21.3-21.3v-21.3h85.2v21.3c-11.8 0-21.3 9.6-21.3 21.3 0 11.8 9.5 21.3 21.3 21.3h42.6c11.8 0 21.3-9.5 21.3-21.3s-9.5-21.3-21.3-21.3v-21.3h85.2c14.1 0 21.3 7.4 21.3 21.3v42.7c-1 66.6-13.9 127.3-14.5 130.5l-34.1 144.6c-8.9 27.4-32.7 44.8-58 44.8h-618c-13 0-17.3-10.5-23.5-19.1-5-6.9-6.5-14.4-6.7-15.4-0.1-0.7-0.2-1-0.4-1.7l-22-96c-0.5-2.3-10-43.4-36.2-74.6-7.7-9.2-21.7-10.5-31.1-2.9s-10.7 21.3-3 30.5c19.5 23.1 27.1 56 27.2 56.3v0.1l21.7 95.3c3.6 23 19.3 70.2 73.9 70.2h468.9v319.8c0 5.8 3.4 10.7 7.5 14.7 4.1 4.1 9.8 6.3 15.6 6.3 5.9 0 11.5-2.3 15.6-6.3 4.1-4.1 3.9-9 3.8-14.7v-319.9h106.6c24.1 0 54.2-12.2 70.1-25.8 13.6-11.6 23.5-27.8 30.3-49.4 0.1-0.5 0.2-1.1 0.4-1.6l34.3-145.6c0.1-0.1 0.1-0.2 0.1-0.4 0.5-2.4 12.9-59.9 14-132.5 0.3-0.1 0.3-0.3 0.2-0.6z" />
<glyph unicode="&#xe929;" glyph-name="wirelessnetwork" d="M512 243.2c-42.4 0-76.8-34.4-76.8-76.8s34.4-76.8 76.8-76.8 76.8 34.4 76.8 76.8-34.4 76.8-76.8 76.8zM512 396.8c-91.84 0-175.040-37.28-235.36-97.44l36.16-36.16c51.040 50.88 121.44 82.4 199.2 82.4s148.16-31.52 199.2-82.4l36.16 36.16c-60.32 60.16-143.52 97.44-235.36 97.44zM512 576c-141.44 0-269.44-57.28-362.080-149.92l36.16-36.16c83.52 83.36 198.72 134.88 325.92 134.88s242.4-51.52 325.76-135.040l36.16 36.16c-92.48 92.8-220.48 150.080-361.92 150.080zM512 780.8c-197.92 0-377.12-80.16-506.88-209.92l36.16-36.16c120.48 120.32 286.88 194.88 470.72 194.88s350.24-74.56 470.72-194.88l36.16 36.16c-129.76 129.76-308.96 209.92-506.88 209.92z" />
</font>
</defs>
</svg>
