<?xml version="1.0" standalone="no"?>
<!DOCTYPE svg PUBLIC "-//W3C//DTD SVG 1.1//EN" "http://www.w3.org/Graphics/SVG/1.1/DTD/svg11.dtd" >
<svg xmlns="http://www.w3.org/2000/svg">
<metadata>Generated by IcoMoon</metadata>
<defs>
<font id="font-cisweb" horiz-adv-x="1024">
<font-face units-per-em="1024" ascent="960" descent="-64" />
<missing-glyph horiz-adv-x="1024" />
<glyph unicode="&#x20;" horiz-adv-x="512" d="" />
<glyph unicode="&#xe900;" glyph-name="base" d="M120.32 61.44l-12.8 12.288v148.992c0 140.8 0.512 148.992 10.24 158.72 5.632 5.632 15.36 11.264 21.504 12.8 6.656 1.536 74.24 2.56 151.040 1.536 128-1.536 139.776-2.048 149.504-11.264 10.24-9.728 10.752-13.824 10.752-162.304v-152.576l-13.312-10.24c-13.312-10.24-19.968-10.752-159.232-10.752h-145.408l-12.288 12.8zM553.984 60.416c-11.264 11.776-11.264 14.848-11.264 163.328 0 146.944 0.512 151.040 10.752 160.768 10.24 9.216 20.48 9.728 161.792 9.728h151.040l9.728-12.288c9.216-11.264 9.728-22.016 9.728-160.256v-147.968l-12.8-12.288-12.288-12.8h-295.936l-10.752 11.776zM585.728 515.072c-58.88 58.368-104.448 108.032-105.984 114.688-1.024 6.656 1.024 18.432 4.096 26.624 9.216 20.992 196.608 204.8 212.992 208.896 8.704 2.048 19.456 0.512 28.16-4.096 8.192-4.608 57.856-51.2 111.104-104.448 92.16-93.184 95.744-97.792 95.744-117.248s-3.584-24.064-103.936-123.904c-94.208-93.696-105.472-103.424-121.344-103.424s-27.136 9.728-120.832 102.912zM117.76 509.44c-9.728 9.728-10.24 16.896-10.24 160.768v151.040l13.312 10.24c13.312 10.24 19.456 10.752 160.768 10.752h146.944l10.752-11.776c11.264-11.776 11.264-14.848 11.264-163.328 0-139.776-0.512-151.552-9.216-159.232-8.192-7.68-27.136-8.704-161.28-8.704-145.408 0-152.576 0.512-162.304 10.24z" />
<glyph unicode="&#xe901;" glyph-name="emergency" d="M64 61.952c-9.216 10.24-12.8 19.456-12.8 35.328 0 17.92 10.24 38.4 70.656 139.776 87.040 146.944 205.824 349.696 285.184 484.864 32.768 56.32 65.536 107.52 72.192 114.176 14.848 13.312 45.568 15.36 61.952 3.584 5.632-4.096 39.936-57.856 75.776-118.784 36.352-61.44 93.696-158.72 128-216.576s70.144-118.784 79.36-135.68c9.728-16.896 47.104-79.872 82.944-140.288 56.32-93.696 65.536-112.64 65.536-131.072 0-15.872-3.584-25.088-12.8-35.328l-12.288-13.312h-871.424l-12.288 13.312zM529.408 158.208c51.2 21.504 19.456 97.28-33.28 78.848-34.304-11.776-36.352-64-2.56-78.848 19.456-8.192 15.872-8.192 35.84 0zM529.92 306.688c26.624 11.264 29.184 27.136 27.136 175.616-1.536 128-1.536 129.024-13.824 141.824-9.216 9.728-17.92 13.312-31.232 13.312s-22.016-3.584-31.232-13.312c-12.288-12.8-12.288-13.824-13.824-140.288-2.048-146.432 1.024-165.888 26.112-176.64 20.48-9.216 16.384-8.704 36.864-0.512z" />
<glyph unicode="&#xe902;" glyph-name="lodger" d="M514.586 380.768c-159.806 0-289.616 129.81-289.616 289.616s129.81 289.616 289.616 289.616 289.616-129.81 289.616-289.616-129.81-289.616-289.616-289.616zM514.586 897.939c-125.673 0-227.556-101.883-227.556-227.556s101.883-227.556 227.556-227.556 227.556 101.883 227.556 227.556-101.883 227.556-227.556 227.556zM85.333-58.828c-17.067 0-31.030 13.964-31.030 31.030 0 259.62 211.006 470.626 470.626 470.626 17.067 0 31.030-13.964 31.030-31.030s-13.964-31.030-31.030-31.030c-225.487 0-408.566-183.079-408.566-408.566 0-17.067-13.964-31.030-31.030-31.030zM819.717-64c-77.576 0-140.154 63.095-140.154 140.154s63.095 140.154 140.154 140.154 140.154-63.095 140.154-140.154-63.095-140.154-140.154-140.154zM819.717 154.764c-42.925 0-78.093-35.168-78.093-78.093s34.651-78.61 78.093-78.61 78.093 35.168 78.093 78.093-35.168 78.61-78.093 78.61zM819.717 174.416c-17.067 0-31.030 13.964-31.030 31.030v242.554c0 17.067 13.964 31.030 31.030 31.030h118.949c17.067 0 31.030-13.964 31.030-31.030s-13.964-31.030-31.030-31.030h-87.919v-211.523c0-17.067-13.964-31.030-31.030-31.030zM938.667 311.467h-109.64c-17.067 0-31.030 13.964-31.030 31.030s13.964 31.030 31.030 31.030h109.64c17.067 0 31.030-13.964 31.030-31.030s-13.964-31.030-31.030-31.030z" />
<glyph unicode="&#xe903;" glyph-name="more" d="M0 448c0-58.911 47.759-106.67 106.665-106.67s106.67 47.759 106.67 106.67-47.754 106.665-106.665 106.665-106.67-47.754-106.67-106.665v0zM405.335 448c0-58.911 47.759-106.67 106.665-106.67s106.67 47.759 106.67 106.67c0.020 58.911-47.718 106.685-106.629 106.706s-106.685-47.718-106.706-106.629c0-0.020 0-0.051 0-0.077zM810.67 448c-0.026-58.911 47.708-106.685 106.619-106.711 58.911-0.020 106.691 47.718 106.711 106.629 0 0.026 0 0.051 0 0.082 0.020 58.911-47.713 106.685-106.629 106.706-58.911 0.020-106.68-47.718-106.701-106.629 0-0.020 0-0.051 0-0.077z" />
<glyph unicode="&#xe904;" glyph-name="party" d="M72.192 6.656c-20.48 18.944-20.992 20.48-20.992 52.736 0.512 26.112 2.56 35.328 11.776 46.080 13.824 16.896 39.424 30.208 57.344 30.208 12.8 0 17.408 6.656 8.192 12.8-7.168 4.096-51.712 63.488-51.712 68.096 0 2.048 17.408 20.992 38.4 41.984l38.4 37.888 16.384-14.848c9.216-8.704 17.92-16.896 19.456-18.432 5.632-7.168 50.176-38.912 76.8-55.296 15.36-9.728 51.2-25.088 79.36-34.816 42.496-14.848 60.928-18.432 107.52-20.48 58.368-3.072 117.76 3.584 143.872 15.36 8.192 3.584 22.016 10.24 31.232 14.336l16.384 7.168-288.768 294.912-40.96-40.96c-22.528-23.040-43.008-41.472-46.080-41.472s-35.328 29.696-71.68 66.56l-66.048 66.56 113.664 114.176 113.664 113.664h50.176c48.128 0 51.712 1.024 77.312 16.896 14.848 8.704 27.648 16.384 28.672 16.384 4.096 0 74.24-72.192 74.24-75.776 0-2.56-25.088-28.672-55.296-58.88l-55.808-54.784 143.36-145.92c78.336-80.384 144.384-145.92 146.432-145.92 5.632 0 31.232 73.216 36.352 104.96 24.576 152.064-45.568 316.928-179.2 419.328-32.768 25.088-69.12 45.568-94.72 54.272-9.728 3.072-17.92 8.192-17.92 10.752 0 5.632 88.576 6.144 94.72 0 3.072-2.048 16.896-7.168 30.72-10.752 64.512-16.896 145.408-66.56 202.24-123.392 40.96-41.472 65.024-74.752 91.648-126.976 31.744-62.464 37.888-91.136 39.936-184.832 1.024-47.616 0-88.576-3.072-94.72-2.56-5.632-7.168-21.504-10.752-35.328-3.072-13.824-12.288-39.424-20.992-57.344-8.192-17.92-14.848-34.816-14.848-37.376s-3.072-8.192-6.656-11.776c-3.584-3.584-10.24-12.8-14.848-19.968l-8.704-13.824 40.96-39.424c22.016-21.504 40.448-41.984 40.448-45.568 0-8.704-109.056-115.712-117.76-115.712-4.608 0-25.088 17.408-46.080 38.4s-40.96 38.4-44.032 38.4c-3.072 0-11.264-4.096-17.92-9.216-17.92-13.312-95.232-45.056-127.488-51.712-15.36-3.584-32.768-8.704-38.4-11.264-6.144-3.072-46.592-4.608-94.72-3.584-103.936 2.048-140.288 11.264-223.744 55.296-31.744 16.896-58.88 30.72-60.416 30.72s-2.56-6.656-2.56-14.848c0-23.040-9.216-42.496-27.136-57.856-13.824-11.776-20.992-13.824-48.128-14.336-29.696 0-32.768 1.024-52.224 19.456z" />
<glyph unicode="&#xe905;" glyph-name="party-red" d="M72.192 6.656c-20.48 18.944-20.992 20.48-20.992 52.736 0.512 26.117 2.56 35.328 11.776 46.080 13.824 16.896 39.424 30.208 57.344 30.208 12.8 0 17.408 6.656 8.192 12.8-7.168 4.096-51.712 63.488-51.712 68.096 0 2.048 17.408 20.997 38.4 41.984l38.4 37.888 16.384-14.848c9.216-8.704 17.92-16.896 19.456-18.432 5.632-7.168 50.176-38.917 76.8-55.301 15.36-9.723 51.2-25.083 79.36-34.816 42.496-14.843 60.928-18.432 107.52-20.48 58.368-3.072 117.76 3.584 143.872 15.36 8.197 3.584 22.021 10.24 31.237 14.336l16.384 7.168-288.773 294.917-40.96-40.96c-22.528-23.040-43.008-41.472-46.080-41.472s-35.328 29.696-71.68 66.56l-66.048 66.56 113.664 114.176 113.664 113.664h50.176c48.128 0 51.712 1.024 77.312 16.896 14.848 8.704 27.648 16.384 28.672 16.384 4.096 0 74.24-72.192 74.24-75.776 0-2.56-25.088-28.672-55.296-58.88l-55.808-54.784 143.36-145.92c78.336-80.384 144.384-145.92 146.437-145.92 5.632 0 31.232 73.216 36.352 104.96 24.576 152.064-45.568 316.928-179.2 419.328-32.768 25.088-69.12 45.568-94.72 54.272-9.728 3.072-17.92 8.192-17.92 10.752 0 5.632 88.576 6.144 94.72 0 3.072-2.048 16.896-7.168 30.72-10.752 64.512-16.896 145.408-66.56 202.24-123.392 40.96-41.472 65.024-74.752 91.648-126.976 31.739-62.464 37.883-91.136 39.936-184.832 1.024-47.616 0-88.576-3.077-94.72-2.56-5.632-7.163-21.504-10.752-35.328-3.072-13.819-12.288-39.419-20.992-57.339-8.197-17.92-14.848-34.821-14.848-37.381s-3.072-8.192-6.656-11.776-10.24-12.8-14.848-19.963l-8.704-13.824 40.96-39.424c22.021-21.504 40.448-41.984 40.448-45.568 0-8.699-109.056-115.712-117.76-115.712-4.608 0-25.088 17.408-46.080 38.4s-40.96 38.4-44.032 38.4c-3.077 0-11.264-4.096-17.92-9.216-17.92-13.317-95.237-45.056-127.488-51.717-15.36-3.579-32.768-8.699-38.4-11.259-6.144-3.077-46.592-4.608-94.72-3.584-103.936 2.043-140.288 11.264-223.744 55.296-31.744 16.896-58.88 30.72-60.416 30.72s-2.56-6.656-2.56-14.848c0-23.040-9.216-42.496-27.136-57.856-13.824-11.776-20.992-13.824-48.128-14.336-29.696-0.005-32.768 1.019-52.224 19.451z" />
<glyph unicode="&#xe906;" glyph-name="plan" d="M899.261-12.15h-774.63c-24.694 0-44.692 19.338-44.692 43.197v748.8c0 23.864 19.999 43.203 44.692 43.203h74.486v-43.203c0-47.718 40.018-86.4 89.375-86.4 49.362 0 89.385 38.682 89.385 86.4v43.203h44.687v-43.203c0-47.718 40.023-86.4 89.385-86.4 49.367 0 89.385 38.682 89.385 86.4v43.203h44.692v-43.203c0-47.718 40.013-86.4 89.375-86.4 49.372 0 89.375 38.682 89.375 86.4v43.203h74.496c24.678 0 44.682-19.338 44.682-43.203v-748.8c-0.015-23.859-20.014-43.197-44.692-43.197v0zM780.078 578.253h-536.269c-24.689 0-44.692-19.348-44.692-43.208 0-23.854 20.004-43.197 44.692-43.197h536.274c24.689 0 44.687 19.338 44.687 43.197-0.005 23.859-20.004 43.208-44.692 43.208zM780.078 391.045h-536.269c-24.689 0-44.692-19.333-44.692-43.203 0-23.859 20.004-43.203 44.692-43.203h536.274c24.689 0 44.687 19.338 44.687 43.203-0.005 23.869-20.004 43.203-44.692 43.203zM787.528 203.837h-551.168c-20.572 0-37.243-16.108-37.243-35.994 0-19.881 16.671-36.004 37.243-36.004h551.173c20.572 0 37.233 16.123 37.233 36.004 0 19.886-16.666 35.994-37.238 35.994zM735.391 736.645c-24.678 0-44.692 19.338-44.692 43.203v86.4c0 23.859 20.009 43.203 44.692 43.203s44.692-19.338 44.692-43.203v-86.4c-0.005-23.859-20.009-43.203-44.692-43.203zM511.939 736.645c-24.678 0-44.687 19.338-44.687 43.203v86.4c0 23.859 20.004 43.203 44.687 43.203s44.692-19.338 44.692-43.203v-86.4c0-23.859-20.009-43.203-44.692-43.203zM288.486 736.645c-24.678 0-44.682 19.338-44.682 43.203v86.4c0 23.859 19.999 43.203 44.682 43.203s44.698-19.338 44.698-43.203v-86.4c0-23.859-20.014-43.203-44.698-43.203z" />
<glyph unicode="&#xe907;" glyph-name="plan-conduct" d="M763.807 395.868c-112.911 0-204.452-91.535-204.452-204.442 0-112.901 91.54-204.457 204.452-204.457 112.906 0 204.442 91.556 204.442 204.457-0.020 112.906-91.54 204.442-204.442 204.442zM805.596 260.767l18.913 18.908c6.298 8.407 18.908 8.407 27.32 0 8.412-6.308 8.412-18.908 0-27.325l-18.903-18.893c-6.298-8.422-18.913-8.422-27.331 0-8.392 6.303-8.392 18.903 0 27.31v0zM637.517 185.114v12.616c0 8.402 6.292 12.605 12.605 12.605h42.030c6.292 0 12.605-6.292 12.605-12.605v-12.616c0-8.417-6.298-12.605-14.71-12.605h-39.931c-6.313 0-12.6 6.318-12.6 12.605v0zM721.567 122.092l-18.913-18.918c-6.292-8.412-18.898-8.412-27.315 0-8.392 6.303-8.392 18.918 0 27.32l18.913 18.913c6.292 8.407 18.898 8.407 27.315 0 8.392-6.313 8.392-18.918 0-27.315v0zM721.567 233.457c-8.417-8.412-21.007-8.412-27.315 0l-18.913 18.903c-8.392 6.303-8.392 18.898 0 27.315 6.298 8.417 18.913 8.417 27.331 0l18.898-18.898c8.392-6.323 8.392-18.918 0-27.32zM782.5 77.962c0-6.303-6.308-12.6-12.611-12.6h-12.611c-6.292 0-12.616 6.292-12.616 12.6v39.931c0 6.298 6.308 12.6 12.616 12.6h12.611c8.412 0 12.611-4.198 12.611-12.6v-39.931zM782.5 264.965c0-6.292-6.308-12.605-12.611-12.605h-12.611c-6.292 0-12.616 6.303-12.616 12.605v39.931c0 6.298 4.198 12.611 12.616 12.611h12.611c8.412 0 12.611-6.298 12.611-12.611v-39.931zM851.835 103.168c-6.292-8.412-18.908-8.412-27.32 0l-18.903 18.918c-8.407 6.292-8.407 18.903 0 27.315 6.303 8.407 18.903 8.407 27.315 0l18.908-18.913c8.407-6.298 8.407-18.908 0-27.32zM889.661 185.114c0-6.292-6.303-12.605-12.616-12.605h-39.931c-6.292 0-12.611 6.303-12.611 12.605v12.616c0 6.298 6.303 12.605 12.611 12.605h39.931c6.298 0 12.616-4.204 12.616-12.605v-12.616zM256.876 740.828c23.956 0 43.382 18.775 43.382 41.933v83.871c0 23.168-19.425 41.943-43.382 41.943-23.962 0-43.372-18.775-43.372-41.943v-83.871c0-23.158 19.41-41.933 43.372-41.933zM690.693 740.828c23.962 0 43.372 18.775 43.372 41.933v83.871c0 23.168-19.42 41.943-43.372 41.943-23.962 0-43.382-18.775-43.382-41.943v-83.871c0-23.158 19.425-41.933 43.382-41.933zM473.784 740.828c23.956 0 43.377 18.775 43.377 41.933v83.871c0 23.168-19.425 41.943-43.377 41.943-23.956 0-43.366-18.775-43.366-41.943v-83.871c-0.015-23.158 19.4-41.933 43.366-41.933zM529.556 153.733h-323.287c-19.973 0-36.157 15.662-36.157 34.949 0 19.297 16.179 34.939 36.157 34.939h322.514c4.818 35.732 17.567 68.961 36.419 97.853h-351.698c-23.972 0-43.387 18.77-43.387 41.923 0 23.163 19.415 41.938 43.387 41.938h446.408c31.626 15.514 67.159 24.264 104.76 24.264 47.329 0 91.392-13.86 128.461-37.668v390.83c0 23.158-19.415 41.943-43.372 41.943h-72.32v-41.943c0-46.321-38.851-83.876-86.758-83.876-47.923 0-86.764 37.55-86.764 83.876v41.943h-43.377v-41.943c0-46.321-38.835-83.876-86.758-83.876-47.908 0-86.758 37.55-86.758 83.876v41.943h-43.382v-41.943c0-46.321-38.84-83.876-86.758-83.876-47.913 0-86.758 37.55-86.758 83.876v41.943h-72.32c-23.972 0-43.382-18.775-43.382-41.943v-726.876c0-23.153 19.42-41.928 43.382-41.928h508.221c-39.885 35.656-67.666 84.552-76.472 139.776v0zM213.504 587.075h520.571c23.962 0 43.377-18.78 43.377-41.943s-19.425-41.933-43.377-41.933h-520.571c-23.972 0-43.387 18.775-43.387 41.933s19.415 41.943 43.387 41.943z" />
<glyph unicode="&#xe908;" glyph-name="plan-new" d="M764.037 395.29c-113.024 0-204.641-91.638-204.641-204.667s91.617-204.652 204.641-204.652 204.667 91.622 204.667 204.652c-0.005 113.029-91.633 204.667-204.667 204.667zM908.063 176.666c0-8.361-6.789-15.155-15.16-15.155h-106.368v-91.054c0.026-8.361-6.743-15.145-15.099-15.165-0.015 0-0.041 0-0.061 0h-15.155c-8.371 0-15.145 6.764-15.145 15.165v90.936h-106.132c-8.356 0-15.165 6.794-15.165 15.165v15.171c0 8.366 6.789 15.16 15.165 15.16h106.348v91.059c0 8.397 6.774 15.165 15.171 15.165h15.155c8.371 0 15.15-6.769 15.15-15.165v-90.947h106.132c8.351 0 15.165-6.789 15.165-15.155v-15.181zM256.609 739.661c23.992 0 43.428 18.801 43.428 41.984v83.948c0 23.194-19.441 41.984-43.428 41.984-23.982 0-43.412-18.79-43.412-41.984v-83.948c0-23.188 19.43-41.984 43.412-41.984zM690.862 739.661c23.982 0 43.423 18.801 43.423 41.984v83.948c0 23.194-19.456 41.984-43.423 41.984-23.982 0-43.428-18.79-43.428-41.984v-83.948c-0.005-23.188 19.446-41.984 43.428-41.984zM473.733 739.661c23.987 0 43.423 18.801 43.423 41.984v83.948c0 23.194-19.441 41.984-43.423 41.984s-43.412-18.79-43.412-41.984v-83.948c-0.010-23.188 19.43-41.984 43.412-41.984zM529.572 151.982h-323.62c-19.988 0-36.178 15.677-36.178 34.985s16.189 34.975 36.178 34.975h322.831c4.828 35.784 17.592 69.038 36.465 97.956h-352.051c-23.992 0-43.423 18.785-43.423 41.969 0 23.188 19.43 41.974 43.423 41.974h446.853c31.652 15.539 67.22 24.289 104.863 24.289 47.375 0 91.479-13.865 128.589-37.699v391.214c0 23.183-19.436 41.979-43.423 41.979h-72.381v-41.979c0-46.377-38.876-83.958-86.84-83.958-47.969 0-86.851 37.586-86.851 83.958v41.979h-43.423v-41.979c0-46.377-38.881-83.958-86.851-83.958-47.959 0-86.845 37.586-86.845 83.958v41.979h-43.428v-41.979c0-46.377-38.876-83.958-86.84-83.958s-86.845 37.586-86.845 83.958v41.979h-72.387c-23.987 0-43.418-18.796-43.418-41.979v-727.608c0-23.173 19.436-41.969 43.418-41.969h508.723c-39.916 35.697-67.727 84.639-76.539 139.914zM213.197 585.754h521.088c23.982 0 43.412-18.801 43.412-41.979 0-23.183-19.436-41.974-43.412-41.974h-521.088c-23.992 0-43.423 18.79-43.423 41.974-0.005 23.178 19.425 41.979 43.423 41.979z" />
<glyph unicode="&#xe909;" glyph-name="plan-schedule" d="M771.599 392.156c-111.867 0.148-202.691-90.496-202.691-202.348 0-111.846 90.399-202.378 202.056-202.404 111.99-0.020 202.624 90.204 202.737 201.795 0.118 112.041-90.235 202.793-202.102 202.957zM835.174 111.176c-6.953-2.304-13.522-0.993-18.785 4.372-13.21 13.548-66.708 67.845-79.718 81.659-3.492 3.676-5.14 8.346-5.14 13.568 0 26.921-0.092 53.837 0.036 80.778 0.092 11.177 8.458 19.692 18.98 19.722 10.644 0.041 21.228-8.627 21.345-20.019 0.082-11.382-0.251-57.175-0.010-68.685 0.041-1.935 1.116-4.316 2.401-5.688 9.948-10.742 58.516-61.655 68.444-72.412 10.204-11.028 6.129-28.728-7.552-33.295v0zM251.218 741.407c23.931 0 43.341 18.765 43.341 41.892v83.799c0 23.148-19.41 41.907-43.341 41.907-23.936 0-43.331-18.76-43.331-41.907v-83.799c0-23.137 19.395-41.892 43.331-41.892zM684.626 741.407c23.946 0 43.341 18.765 43.341 41.892v83.799c0 23.148-19.405 41.907-43.341 41.907s-43.336-18.76-43.336-41.907v-83.799c-0.005-23.137 19.405-41.892 43.336-41.892zM467.927 741.407c23.936 0 43.336 18.765 43.336 41.892v83.799c0 23.148-19.41 41.907-43.336 41.907-23.936 0-43.336-18.76-43.336-41.907v-83.799c-0.010-23.137 19.395-41.892 43.336-41.892zM523.648 154.87h-322.99c-19.953 0-36.116 15.642-36.116 34.913s16.164 34.903 36.116 34.903h322.212c4.813 35.717 17.551 68.9 36.388 97.761h-351.37c-23.946 0-43.346 18.755-43.346 41.897 0 23.148 19.4 41.897 43.346 41.897h445.983c31.601 15.508 67.098 24.243 104.673 24.243 47.273 0 91.3-13.844 128.333-37.632v390.446c0 23.148-19.4 41.907-43.336 41.907h-72.243v-41.907c0-46.275-38.815-83.784-86.682-83.784-47.877 0-86.687 37.509-86.687 83.784v41.907h-43.336v-41.907c0-46.275-38.799-83.784-86.682-83.784-47.872 0-86.676 37.509-86.676 83.784v41.907h-43.346v-41.907c0-46.275-38.804-83.784-86.676-83.784-47.867 0-86.676 37.509-86.676 83.784v41.907h-72.233c-23.941 0-43.336-18.755-43.336-41.907v-726.185c0-23.137 19.395-41.897 43.336-41.897h507.74c-39.834 35.63-67.599 84.47-76.396 139.653zM207.887 587.796h520.084c23.946 0 43.331-18.765 43.331-41.902 0-23.142-19.4-41.897-43.331-41.897h-520.084c-23.946 0-43.346 18.76-43.346 41.897s19.4 41.902 43.346 41.902z" />
<glyph unicode="&#xe90a;" glyph-name="plan-success" d="M765.957 398.080c-112.952 0-204.518-91.571-204.518-204.513 0-112.957 91.571-204.534 204.518-204.534 112.963 0 204.513 91.571 204.513 204.534 0 112.942-91.561 204.513-204.513 204.513zM896.952 237.578l-148.92-133.919c-2.683-2.401-6.164-3.732-9.764-3.732-3.881-0.005-7.598 1.541-10.337 4.285l-95.677 95.667c-5.699 5.688-5.699 14.95 0 20.639 5.714 5.714 14.966 5.714 20.664 0l85.873-85.857 138.614 124.646c5.985 5.412 15.252 4.915 20.613-1.091 5.422-5.996 4.936-15.232-1.065-20.639zM257.828 742.492c24.023 0 43.489 18.821 43.489 42.030v84.065c0 23.224-19.466 42.040-43.489 42.040-24.018 0-43.479-18.816-43.479-42.040v-84.065c0.005-23.214 19.466-42.030 43.479-42.030zM692.664 742.492c24.018 0 43.484 18.821 43.484 42.030v84.065c0 23.224-19.482 42.040-43.484 42.040-24.008 0-43.474-18.816-43.474-42.040v-84.065c-0.015-23.214 19.466-42.030 43.474-42.030zM475.244 742.492c24.018 0 43.484 18.821 43.484 42.030v84.065c0 23.224-19.466 42.040-43.484 42.040-24.003 0-43.474-18.816-43.474-42.040v-84.065c-0.005-23.214 19.466-42.030 43.474-42.030zM531.164 154.025h-324.050c-20.019 0-36.239 15.698-36.239 35.036s16.215 35.016 36.239 35.016h323.261c4.838 35.83 17.618 69.13 36.516 98.089h-352.538c-24.018 0-43.484 18.811-43.484 42.025 0 23.219 19.466 42.035 43.484 42.035h447.462c31.698 15.555 67.313 24.325 105.011 24.325 47.437 0 91.592-13.901 128.748-37.76v391.736c0 23.214-19.456 42.040-43.479 42.040h-72.463v-42.040c0-46.433-38.938-84.076-86.968-84.076-48.026 0-86.958 37.637-86.958 84.076v42.040h-43.479v-42.040c0-46.433-38.932-84.076-86.963-84.076-48.026 0-86.963 37.637-86.963 84.076v42.040h-43.484v-42.040c0-46.433-38.932-84.076-86.963-84.076-48.026 0-86.958 37.637-86.958 84.076v42.040h-72.494c-24.018 0-43.479-18.821-43.479-42.040v-728.581c0-23.199 19.461-42.025 43.479-42.025h509.404c-39.972 35.743-67.82 84.751-76.641 140.104v0zM214.354 588.38h521.8c24.013 0 43.474-18.826 43.474-42.040 0-23.204-19.461-42.025-43.474-42.025h-521.8c-24.018 0-43.484 18.816-43.484 42.025s19.466 42.040 43.484 42.040z" />
<glyph unicode="&#xe90b;" glyph-name="plan-wait" d="M968.253 190.346c-0.072-111.903-90.829-202.629-202.655-202.598-111.805 0.010-202.696 90.819-202.614 202.639 0.108 112.015 90.409 202.721 202.752 202.639 112.215-0.123 202.604-90.911 202.516-202.68zM799.734 325.402h-68.378c3.236-63.826 6.513-127.462 9.743-191.171h48.876c3.261 63.739 6.492 127.37 9.759 191.171v0zM764.401 43.156c20.301 0.036 34.253 13.788 34.371 33.864 0.113 20.244-13.937 34.488-33.981 34.447-19.973-0.026-34.406-14.515-34.355-34.499 0.036-19.922 14.049-33.874 33.966-33.812zM256.63 741.192c24.018 0 43.484 18.831 43.484 42.040v84.070c0 23.224-19.471 42.040-43.484 42.040-24.023 0-43.479-18.816-43.479-42.040v-84.070c-0.005-23.219 19.456-42.040 43.479-42.040zM691.487 741.192c24.018 0 43.484 18.831 43.484 42.040v84.070c0 23.224-19.482 42.040-43.484 42.040-24.013 0-43.489-18.816-43.489-42.040v-84.070c0-23.219 19.482-42.040 43.489-42.040v0zM474.056 741.192c24.018 0 43.479 18.831 43.479 42.040v84.070c0 23.224-19.466 42.040-43.479 42.040s-43.484-18.816-43.484-42.040v-84.070c0.005-23.219 19.461-42.040 43.484-42.040zM529.971 152.684h-324.076c-20.014 0-36.234 15.693-36.234 35.031 0 19.343 16.215 35.026 36.234 35.026h323.292c4.838 35.83 17.618 69.13 36.521 98.089h-352.563c-24.028 0-43.484 18.821-43.484 42.025 0 23.224 19.461 42.051 43.484 42.051h447.488c31.703 15.544 67.323 24.32 105.016 24.32 47.437 0 91.602-13.901 128.758-37.765v391.772c0 23.214-19.461 42.040-43.474 42.040h-72.484v-42.040c0-46.438-38.932-84.076-86.963-84.076s-86.973 37.642-86.973 84.076v42.045h-43.484v-42.040c0-46.433-38.932-84.076-86.968-84.076-48.020 0-86.968 37.642-86.968 84.076v42.040h-43.489v-42.040c0-46.433-38.932-84.076-86.968-84.076-48.020 0-86.968 37.642-86.968 84.076v42.040h-72.494c-24.023 0-43.484-18.821-43.484-42.040v-728.637c0-23.209 19.466-42.025 43.484-42.025h509.445c-39.967 35.743-67.825 84.751-76.646 140.109zM213.146 587.069h521.83c24.023 0 43.484-18.826 43.484-42.045 0-23.209-19.466-42.030-43.484-42.030h-521.83c-24.028 0-43.484 18.821-43.484 42.030 0 23.214 19.461 42.045 43.484 42.045z" />
<glyph unicode="&#xe90c;" glyph-name="position" d="M512.005 125.146c223.455 319.459 271.050 457.293 271.050 516.685 0 150.516-121.599 272.991-271.050 272.991-149.446 0-271.055-122.469-271.055-272.991 0-59.33 47.564-197.108 271.055-516.685zM512.005 45.741c-0.077 0-0.077 0.102 0 0.241 0.082-0.164 0.082-0.241 0-0.241zM512.005 45.982c-4.367 11.412-316.234 422.601-316.234 595.86 0 175.722 141.592 318.169 316.234 318.169s316.223-142.442 316.223-318.169c0-173.269-311.82-584.463-316.223-595.86zM662.030 111.261c-10.291 2.257-17.879 11.295-17.879 22.105 0 1.669 0.181 3.296 0.524 4.863l-0.028-0.15c2.262 10.292 11.304 17.881 22.118 17.881 1.665 0 3.287-0.18 4.85-0.521l-0.15 0.027c93.511-20.029 156.757-58.347 156.757-102.348 0-64.65-136.698-117.119-305.344-117.119-168.61 0-305.323 52.469-305.323 117.119 0 43.909 63.073 82.211 156.348 102.23 1.424 0.32 3.060 0.503 4.739 0.503 10.797 0 19.823-7.578 22.052-17.705l0.028-0.15c0.321-1.426 0.505-3.064 0.505-4.744 0-10.784-7.574-19.799-17.692-22.016l-0.149-0.027c-91.76-19.712-120.652-51-120.652-58.091 0-18.498 89.461-71.91 260.145-71.91 170.699 0 260.16 53.411 260.16 71.91 0.015 7.122-28.974 38.471-121.010 58.142zM515.779 573.659c47.211 0 85.636 38.83 85.636 86.578s-38.425 86.578-85.636 86.578c-47.232 0-85.662-38.83-85.662-86.578s38.441-86.578 85.662-86.578zM515.779 528.475c-72.258 0-130.84 58.982-130.84 131.757 0 72.78 58.572 131.762 130.84 131.762 72.237 0 130.81-58.982 130.81-131.762 0-72.775-58.567-131.757-130.81-131.757z" />
<glyph unicode="&#xe90d;" glyph-name="preview" d="M512 768c-223.296 0-416.896-130.048-512-320 95.104-189.952 288.704-320 512-320s416.896 130.048 512 320c-95.104 189.952-288.704 320-512 320zM416 646.016c53.056 0 96-43.008 96-96 0-53.056-42.944-96-96-96s-96 42.944-96 96c0 52.992 42.944 96 96 96zM764.416 297.664c-75.52-48.192-162.88-73.664-252.416-73.664s-176.896 25.472-252.416 73.664c-60.16 38.4-111.168 89.856-149.44 150.336 38.272 60.48 89.28 111.936 149.44 150.336 3.904 2.496 7.872 4.928 11.84 7.296-9.984-27.328-15.424-56.832-15.424-87.616 0-141.376 114.624-256 256-256s256 114.624 256 256c0 30.784-5.44 60.224-15.424 87.552 3.968-2.368 7.936-4.736 11.84-7.232 60.16-38.4 111.168-89.792 149.44-150.336-38.272-60.48-89.28-111.936-149.44-150.336z" />
<glyph unicode="&#xe90e;" glyph-name="resident" d="M440.32 1.024c-19.456 17.92-22.016 33.792-33.28 183.296-11.264 154.624-9.216 145.92-32.768 145.92-23.040 0-36.352 12.288-36.352 33.792 0.512 27.136 24.576 209.408 30.208 223.232 8.192 22.016 33.792 34.816 69.632 34.816 28.672 0 31.232-1.024 52.224-21.504l22.016-21.504 22.016 21.504c20.992 20.48 23.552 21.504 52.224 21.504 35.328 0 61.44-12.8 69.12-33.792 5.632-14.336 30.72-200.704 30.72-226.304 0-19.456-14.336-31.744-37.376-31.744-22.528 0-19.968 11.776-33.792-165.376-14.336-177.664-14.336-177.664-103.936-177.664-52.736 0-55.808 0.512-70.656 13.824zM165.376 51.712c-8.704 4.608-19.456 15.36-24.064 24.576-4.608 9.728-12.288 62.464-18.944 135.168l-11.776 118.784h-21.504c-41.472 0-44.544 15.872-27.136 144.384 17.408 131.072 27.136 147.456 89.088 147.456 28.672 0 31.232-1.024 52.224-21.504l21.504-20.992 23.040 20.992c21.504 19.968 25.6 21.504 51.712 21.504 29.696 0 31.232-1.536 22.528-24.064-10.752-27.136-33.792-238.080-28.672-258.56 4.608-18.944 18.944-37.888 36.352-47.616 8.704-5.12 8.704-9.728-1.024-105.984-10.752-106.496-13.824-115.2-40.448-132.608-18.944-12.8-98.304-13.312-122.88-1.536zM731.136 56.32c-23.552 15.872-26.112 25.088-37.376 140.8-5.632 59.904-6.656 90.112-3.072 91.136 14.848 5.12 31.232 24.064 38.4 45.056 7.68 23.040 7.168 29.696-7.168 137.728-8.192 62.464-17.408 119.808-20.48 127.488-8.192 22.016-6.656 23.552 23.040 23.552 26.112 0 30.208-1.536 51.712-21.504l23.040-20.992 21.504 20.992c20.992 20.48 23.552 21.504 52.224 21.504 61.952 0 71.68-16.384 89.088-147.456 17.408-129.024 14.336-144.384-28.16-144.384h-20.48l-11.776-118.784c-6.656-72.704-14.336-125.44-18.944-135.68-11.776-24.064-33.792-32.256-87.552-32.256-39.936 0-47.616 1.536-64 12.8zM181.76 680.448c-41.984 18.432-74.24 66.56-74.24 110.592 0.512 42.496 28.672 88.064 67.584 108.032 25.6 13.312 74.752 13.312 100.352 0 22.528-11.776 47.616-37.376 59.392-60.416s10.752-73.728-1.536-98.304c-11.776-22.528-41.472-50.176-65.024-59.904-21.504-8.704-66.048-8.704-86.528 0zM467.968 680.448c-8.704 3.584-24.576 14.848-35.328 24.064-49.152 43.008-51.712 119.808-6.144 167.424 25.088 26.112 49.664 36.864 85.504 36.864 37.376 0 61.952-11.264 88.064-39.936 23.552-25.6 31.232-50.688 28.672-88.576-2.56-35.84-20.48-65.024-54.272-88.576-18.432-12.8-27.648-15.872-56.32-16.896-21.504-1.024-40.448 1.024-50.176 5.632zM754.688 680.448c-23.040 10.24-52.224 37.888-64 59.904-10.752 21.504-13.312 71.168-4.608 93.696 7.168 18.944 40.448 53.76 61.952 65.024 26.112 13.312 75.264 13.312 100.864 0 38.912-19.968 67.072-65.536 67.584-108.032 0-44.544-32.768-93.184-75.264-111.104-20.992-8.704-66.048-8.192-86.528 0.512z" />
<glyph unicode="&#xe90f;" glyph-name="serve" d="M512 908.8c-254.469 0-460.8-206.331-460.8-460.8s206.331-460.8 460.8-460.8c254.469 0 460.8 206.331 460.8 460.8s-206.331 460.8-460.8 460.8zM598.4 555.899l-89.487-310.011c-4.936-17.69-7.409-29.414-7.409-34.872 0-3.185 1.336-6.17 3.912-8.945 2.57-2.78 5.345-4.116 8.33-4.116 4.936 0 9.876 2.161 14.812 6.579 13.066 10.798 28.8 30.239 47.109 58.424l14.812-8.745c-43.919-76.524-90.516-114.785-139.986-114.785-18.929 0-33.946 5.345-45.153 15.939-11.213 10.593-16.763 24.069-16.763 40.32 0 10.798 2.468 24.381 7.404 41.042l60.585 208.497c5.862 20.055 8.745 35.174 8.745 45.358 0 6.38-2.775 12.037-8.33 16.973s-13.066 7.404-22.63 7.404c-4.321 0-9.564-0.102-15.739-0.415l5.658 17.49 147.809 23.967h26.332v-0.102zM616.709 647.132c-12.549-12.549-27.668-18.719-45.358-18.719-17.485 0-32.399 6.272-44.948 18.719-12.549 12.549-18.719 27.668-18.719 45.358s6.175 32.809 18.514 45.358c12.339 12.447 27.361 18.719 45.153 18.719 18.002 0 33.219-6.277 45.563-18.719 12.339-12.549 18.514-27.668 18.514-45.358s-6.272-32.809-18.719-45.358z" />
<glyph unicode="&#xe910;" glyph-name="task" d="M400.384-6.656c-4.096 4.096-6.144 24.576-6.144 57.856v52.224l-20.992 8.192-21.504 8.704-35.84-35.84c-25.6-25.6-39.424-35.84-49.152-35.84-18.432 0-154.112 135.168-154.112 154.112 0 9.216 10.752 23.552 35.84 48.64l35.84 36.352-8.704 20.992-8.192 21.504h-48.128c-73.216 0-68.096-8.704-68.096 117.76s-5.12 117.76 68.096 117.76h48.128l8.192 20.992 8.704 21.504-35.84 35.84c-26.112 26.112-35.84 39.424-35.84 49.664 0 18.944 135.168 153.6 154.624 153.6 8.704 0 23.552-10.752 49.152-35.84l35.84-36.352 20.992 8.704 20.992 8.192v52.224c0 33.792 2.048 54.272 6.144 58.368 8.704 8.704 214.528 8.704 223.232 0 4.096-4.096 6.144-24.576 6.144-57.856v-52.224l20.992-8.192 21.504-8.704 35.84 35.84c25.6 25.6 39.424 35.84 49.152 35.84 18.432 0 154.112-135.168 154.112-154.112 0-9.216-10.752-23.552-35.84-48.64l-35.84-36.352 8.704-20.992 8.192-21.504h48.128c73.216 0 68.096 8.704 68.096-117.76s5.12-117.76-68.096-117.76h-48.128l-8.192-21.504-8.704-20.992 35.84-36.352c26.112-25.6 35.84-39.424 35.84-49.152 0-18.944-135.68-153.6-154.624-153.6-8.704 0-23.552 10.752-49.152 35.84l-35.84 36.352-20.992-8.704-20.992-8.192v-52.224c0-33.792-2.048-54.272-6.144-58.368-8.704-8.704-214.528-8.704-223.232 0zM559.104 197.632c121.344 25.6 205.824 128.512 205.824 250.368 0 72.192-32.768 146.432-85.504 192.512-29.184 25.6-87.552 51.712-131.072 59.392-65.536 11.264-150.016-13.312-203.776-59.392-73.728-63.488-104.96-179.2-73.728-270.848 23.040-68.096 67.584-119.808 128.512-148.48 57.856-27.648 106.496-34.816 159.744-23.552zM461.824 308.224c-11.776 4.096-34.304 18.944-49.664 32.768-45.056 41.472-58.368 92.16-40.448 153.6 11.264 37.888 55.808 82.432 94.72 93.696 56.32 16.896 101.376 6.656 145.408-33.792 45.056-40.96 58.368-92.16 40.448-153.088-11.264-37.888-55.808-82.432-94.72-93.696-33.28-10.24-66.56-9.728-95.744 0.512z" />
<glyph unicode="&#xe911;" glyph-name="warn" d="M468.582 45.22c-26.015 0-47.601 17.203-55.583 40.612h-61.317c9.129-56.433 57.994-100.019 116.9-100.019 58.916 0 107.781 43.587 116.905 100.019h-61.322c-7.992-23.409-29.553-40.612-55.583-40.612zM291.963 626.12c-24.059-32.036-36.767-70.134-36.767-110.259v-167.086c0-9.221 7.47-16.712 16.717-16.712s16.707 7.491 16.707 16.712v167.086c0 32.84 10.404 64.005 30.049 90.189 5.576 7.414 4.086 17.864-3.272 23.383-7.434 5.555-17.894 4.014-23.434-3.313v0zM444.099 136.458c0 16.41-13.281 29.691-29.701 29.691h-263.337c23.378 32.379 47.457 77.865 51.046 131.123 3.195 46.868 2.555 123.51 2.094 179.492l-0.297 42.819c0 73.16 31.043 142.945 85.228 191.503 52.623 47.222 119.634 69.043 189.588 61.563 56.156-6.042 107.274-32.317 147.763-75.889 11.203-12.124 29.993-12.764 41.953-1.567 12.058 11.141 12.759 29.937 1.567 41.948-38.38 41.339-86.41 70.395-138.312 85.105v4.301c0 44.605-35.732 80.865-79.708 80.865-43.971 0-79.713-36.26-79.713-80.865v-4.081c-44.8-12.283-86.641-34.688-122.813-67.164-66.724-59.822-104.95-145.741-104.95-235.72l0.292-43.336c0.466-54.999 1.096-130.309-1.976-174.915-5.402-80.067-76.518-141.619-77.22-142.254-9.513-8.059-12.933-21.233-8.643-32.896 4.296-11.663 15.432-19.441 27.848-19.441h329.585c16.42 0.005 29.706 13.286 29.706 29.716v0zM451.988 848c9.052 0 16.609-6.712 19.144-15.524-12.882 0.799-25.636 0.829-38.277 0.046 2.55 8.786 10.097 15.478 19.133 15.478zM920.115 378.716c-2.673 1.213-3.599 3.364-3.886 4.869-0.292 1.505-0.23 3.768 1.91 6.036 2.207 2.376 4.818 4.168 8.468 5.74 26.624 11.889 40.899 34.985 38.18 61.839-2.796 27.612-11.023 50.586-25.242 70.144-18.744 25.81-47.35 34.227-76.406 22.098-4.122-1.684-7.956-2.488-12.073-2.488-2.14 0-5.448 2.14-5.632 4.116-0.236 2.847 0.174 5.571 1.459 9.17 2.842 8.064 7.071 20.188 4.116 35.215-4.762 23.035-21.012 36.204-28.6 42.414-21.407 17.638-46.459 22.912-63.406 25.354-21.463 3.538-41.83-4.695-55.066-21.693-5.043-6.436-9.549-13.041-12.524-19.845-0.84-1.889-5.745-7.926-12.365-3.999-2.647 1.567-4.234 5.335-6.835 10.9-12.124 25.298-34.406 37.944-61.445 34.872-29.701-3.476-53.309-12.534-72.044-27.612-21.012-16.886-28.913-39.747-22.856-64.63 0.655-2.724 1.137-5.135 1.961-8.018 0 0 0.937-3.425 1.024-5.473 0.082-1.674 0.456-3.441-0.456-5.197-1.034-1.951-3.057-4.178-7.818-3.994-3.538 0.23-8.12 1.213-17.055 3.763-13.343 3.717-39.045 6.093-61.957-20.009-16.015-18.335-22.569-39.281-26.808-57.318-7.424-31.268 4.823-69.857 41.661-82.668 0.522-0.297 5.571-0.292 6.267-6.093 0.353-2.964-3.948-6.615-11.372-9.748-26.399-11.075-40.325-34.688-38.236-64.748 1.802-25.467 10.68-48.788 26.337-69.386 16.072-21.11 40.269-30.044 66.545-24.008 7.834 1.797 14.735 3.185 18.975 3.528 0.108-2.437-1.403-6.497-2.97-10.609-3.011-7.66-6.723-19.497-4.398-33.772 2.55-15.841 10.563-29.123 24.648-40.668 17.925-14.679 40.090-24.305 67.763-29.471 32.604-6.088 62.828 9.748 74.542 39.629 0.589 1.567 3.011 11.069 9.375 10.614 5.146-0.369 5.647-4.48 8.909-11.725 11.336-25.196 32.947-39.859 57.492-39.859 2.719 0 5.514 0.174 8.351 0.532 23.276 3.072 44.795 11.254 64.056 24.31 27.090 18.447 36.956 51.686 23.905 80.814-0.584 1.27-2.145 7.035-0.814 9.334 2.473 4.28 11.387 0.097 21.35-2.376 25.574-6.369 50.237 1.388 69.033 22.502 18.166 20.593 24.079 44.677 26.977 61.036 4.352 24.714-3.881 42.179-11.479 52.444-9.4 12.698-21.827 19.553-31.565 24.131v0zM904.684 312.402c-2.673-14.904-6.682-24.771-12.995-31.903-4.936-5.637-7.137-5.105-9.923-4.357-13.988 3.533-29.363 6.323-46.469 3.308-25.702-4.588-47.171-28.544-48.845-54.303-0.993-14.331 0.922-26.691 5.965-37.821 1.679-3.773-1.976-6.62-3.077-7.373-11.658-7.885-24.243-12.657-39.040-14.674-0.41 0.225-1.864 1.669-3.308 4.864-8.233 18.452-20.716 31.555-37.304 39.050-22.103 9.861-45.189 7.020-65.147-7.89-11.715-8.822-20.255-19.779-25.349-32.666-0.527-1.398-1.28-3.999-8.366-2.959-17.807 3.364-30.858 8.76-41.016 17.060l-4.229 3.784 1.792 3.292c3.717 9.631 7.547 21.007 6.851 34.872-1.28 28.14-22.4 51.292-50.13 54.994-3.681 0.456-7.373 0.691-11.080 0.696-10.911 0-20.828-2.028-30.167-4.111-3.656-0.932-4.173-0.527-6.149 2.033-8.53 11.244-13.399 23.885-14.331 37.586 0 0-0.184 2.985 0.195 3.886 0.261 0.604 1.224 1.567 1.782 1.915 17.321 10.788 33.178 21.176 41.59 38.292 10.737 21.811 8.131 45.594-7.127 63.698-7.429 8.704-17.751 19.374-31.908 24.31-6.615 2.319-4.357 13.169-4.357 13.343 3.717 15.718 7.721 24.955 18.278 32.778 9.114-2.56 20.306-5.862 33.587-4.869 34.468 2.14 59.116 25.805 61.322 57.953l0.988 9.8-0.64 11.776c-0.584 5.745-1.28 11.428-0.113 20.772 9.923 8.008 23.148 12.764 42.522 13.635 3.845-8.187 9.523-18.862 19.441-28.37 14.966-14.331 35.63-20.255 56.566-16.655 21.929 3.891 40.73 17.93 50.35 37.54 1.464 3.016 3.441 6.149 5.581 8.755 16.246-2.319 26.46-6.026 34.345-12.534 1.853-1.567 7.603-6.144 7.885-6.318l-1.802-5.75c-4.055-11.372-5.571-22.446-4.588-34.053 2.903-31.503 29.88-57.083 61.384-58.184 12.989 0.108 25.754 1.853 38.113 6.958l2.918 1.459 2.765-3.543c7.89-10.849 12.534-24.361 11.197-42.762-10.788-4.695-20.188-11.254-27.786-19.369-14.628-15.437-20.946-37.079-16.998-57.846 3.948-20.828 17.807-38.584 37.13-47.631 3.128-1.454 7.424-3.656 8.934-5.632 0.65-0.86 1.577-2.135 0.763-6.835v0zM682.481 524.969c-78.387-1.050-139.581-62.31-139.346-139.412 0.108-37.596 14.899-72.863 41.759-99.323 26.286-25.989 60.923-40.197 97.531-40.197h1.505c77.855 0.748 140.682 63.575 140.052 140.088-0.297 37.478-15.201 72.643-41.994 98.862-26.762 26.235-62.259 40.392-99.507 39.982zM683.361 305.434c-22.17-1.91-41.487 7.956-56.745 23.096-15.488 15.258-24.028 35.558-24.074 57.144-0.108 44.211 35.328 79.309 80.701 79.887h1.050c21.053 0 40.955-8.12 56.1-22.979 15.437-15.135 24.013-35.323 24.197-56.904 0.384-43.807-36.045-79.831-81.229-80.246z" />
<glyph unicode="&#xe912;" glyph-name="warn-conduct" d="M688.225 101.473c-73.492 0-142.597 28.616-194.565 80.584-51.973 51.973-80.594 121.073-80.594 194.575 0 73.492 28.621 142.592 80.594 194.56 51.973 51.973 121.073 80.594 194.57 80.594s142.597-28.621 194.57-80.594c51.968-51.968 80.584-121.068 80.584-194.56 0-73.498-28.616-142.602-80.584-194.575-51.978-51.968-121.083-80.584-194.575-80.584zM688.225 604.339c-125.558 0-227.707-102.149-227.707-227.707 0-125.563 102.149-227.712 227.707-227.712s227.712 102.144 227.712 227.712c0 125.558-102.154 227.707-227.712 227.707zM739.63 461.906l23.26 23.26c7.752 10.332 23.25 10.332 33.603 0 10.348-7.757 10.348-23.26 0-33.592l-23.25-23.25c-7.757-10.358-23.25-10.358-33.608 0-10.327 7.752-10.327 23.255-0.005 33.582zM532.92 368.876v15.508c0 10.337 7.741 15.503 15.498 15.503h51.692c7.757 0 15.498-7.741 15.498-15.503v-15.508c0-10.332-7.747-15.508-18.094-15.508h-49.106c-7.747 0.005-15.488 7.762-15.488 15.508zM636.273 291.364l-23.255-23.265c-7.757-10.342-23.25-10.342-33.603 0-10.327 7.752-10.327 23.265 0 33.603l23.26 23.27c7.762 10.322 23.245 10.322 33.592 0 10.342-7.772 10.342-23.27 0.005-33.608zM636.273 428.324c-10.348-10.358-25.836-10.358-33.597 0l-23.26 23.25c-10.317 7.752-10.317 23.25 0 33.592 7.762 10.342 23.26 10.342 33.608 0l23.245-23.25c10.342-7.757 10.342-23.26 0.005-33.592zM711.214 237.102c0-7.767-7.772-15.503-15.514-15.503h-15.498c-7.757 0-15.514 7.741-15.514 15.503v49.096c0 7.757 7.762 15.514 15.514 15.514h15.498c10.342 0 15.514-5.176 15.514-15.514v-49.096zM711.214 467.082c0-7.741-7.772-15.503-15.514-15.503h-15.498c-7.757 0-15.514 7.757-15.514 15.503v49.096c0 7.757 5.161 15.508 15.514 15.508h15.498c10.342 0 15.514-7.747 15.514-15.508v-49.096zM796.488 268.099c-7.752-10.342-23.25-10.342-33.603 0l-23.26 23.265c-10.322 7.741-10.322 23.245 0 33.603 7.772 10.322 23.26 10.322 33.608 0l23.25-23.27c10.353-7.752 10.353-23.245 0.005-33.597zM843.008 368.876c0-7.747-7.762-15.508-15.508-15.508h-49.111c-7.752 0-15.503 7.767-15.503 15.508v15.508c0 7.747 7.747 15.503 15.503 15.503h49.116c7.752 0 15.514-5.171 15.514-15.503v-15.508h-0.010zM478.833 41.948c-26.015 0-47.606 17.208-55.583 40.622h-61.327c9.129-56.438 57.999-100.019 116.91-100.019 58.921 0 107.771 43.581 116.9 100.014h-61.307c-7.992-23.404-29.573-40.617-55.593-40.617zM302.208 622.848c-24.059-32.036-36.767-70.129-36.767-110.254v-167.081c0-9.216 7.465-16.701 16.717-16.701 9.242 0 16.701 7.485 16.701 16.701v167.076c0 32.845 10.404 64.010 30.054 90.189 5.581 7.419 4.081 17.869-3.272 23.388-7.439 5.555-17.889 4.019-23.434-3.318zM454.339 133.181c0 16.42-13.281 29.706-29.701 29.706h-263.332c23.383 32.374 47.457 77.855 51.052 131.113 3.2 46.874 2.555 123.515 2.089 179.497l-0.292 42.819c0 73.155 31.043 142.945 85.228 191.503 52.618 47.227 119.629 69.038 189.588 61.558 56.156-6.036 107.274-32.317 147.773-75.884 11.192-12.129 29.988-12.759 41.943-1.567 12.063 11.141 12.754 29.942 1.562 41.948-38.369 41.334-86.4 70.4-138.312 85.1v4.301c0 44.611-35.732 80.87-79.703 80.87-43.981 0-79.718-36.26-79.718-80.87v-4.081c-44.795-12.283-86.641-34.683-122.813-67.164-66.724-59.817-104.95-145.736-104.95-235.709l0.292-43.336c0.466-55.009 1.096-130.304-1.976-174.92-5.396-80.061-76.524-141.614-77.22-142.259-9.518-8.059-12.933-21.233-8.643-32.896 4.296-11.663 15.432-19.446 27.848-19.446h329.585c16.42 0.010 29.701 13.297 29.701 29.716zM462.234 844.739c9.047 0 16.609-6.717 19.149-15.529-12.887 0.804-25.646 0.824-38.282 0.041 2.54 8.796 10.102 15.488 19.133 15.488z" />
<glyph unicode="&#xe913;" glyph-name="warn-success" d="M845.885 434.442l-184.581-165.975c-3.308-2.995-7.624-4.644-12.083-4.639-4.654 0-9.288 1.787-12.81 5.304l-118.574 118.569c-7.071 7.055-7.071 18.529 0 25.59 7.076 7.076 18.54 7.076 25.61 0l106.44-106.419 171.807 154.486c7.419 6.692 18.883 6.088 25.554-1.347 6.671-7.424 6.072-18.862-1.362-25.569zM683.791 104.724c-73.498 0-142.597 28.616-194.56 80.589-51.968 51.968-80.594 121.068-80.594 194.565s28.621 142.597 80.594 194.565c51.968 51.968 121.062 80.594 194.56 80.594s142.602-28.621 194.565-80.594c51.973-51.968 80.594-121.068 80.594-194.565s-28.621-142.597-80.594-194.565c-51.968-51.968-121.068-80.589-194.565-80.589v0zM683.791 607.585c-125.553 0-227.702-102.144-227.702-227.707s102.144-227.702 227.702-227.702c125.558 0 227.712 102.139 227.712 227.702-0.005 125.558-102.154 227.707-227.712 227.707zM474.399 45.21c-26.015 0-47.601 17.203-55.583 40.617h-61.317c9.129-56.443 57.994-100.014 116.9-100.014 58.926 0 107.781 43.592 116.91 100.014h-61.312c-7.992-23.414-29.573-40.617-55.598-40.617zM297.779 626.104c-24.054-32.036-36.767-70.134-36.767-110.259v-167.081c0-9.221 7.47-16.717 16.717-16.717 9.242 0 16.707 7.496 16.707 16.717v167.081c0 32.84 10.394 64.010 30.049 90.194 5.576 7.414 4.081 17.864-3.272 23.383-7.434 5.55-17.889 4.009-23.434-3.318zM449.91 136.443c0 16.415-13.286 29.696-29.701 29.696h-263.332c23.383 32.369 47.452 77.865 51.062 131.128 3.19 46.874 2.55 123.505 2.084 179.492l-0.297 42.813c0 73.155 31.043 142.945 85.228 191.498 52.618 47.232 119.624 69.038 189.594 61.558 56.161-6.031 107.269-32.317 147.763-75.884 11.197-12.124 29.988-12.759 41.943-1.567 12.068 11.146 12.759 29.942 1.567 41.943-38.374 41.339-86.4 70.405-138.307 85.11v4.296c0 44.611-35.743 80.876-79.718 80.876s-79.708-36.265-79.708-80.876v-4.076c-44.8-12.288-86.646-34.683-122.819-67.164-66.714-59.827-104.94-145.741-104.94-235.72l0.297-43.336c0.466-54.999 1.091-130.304-1.971-174.915-5.407-80.067-76.518-141.619-77.22-142.254-9.513-8.064-12.933-21.238-8.643-32.901 4.296-11.668 15.432-19.436 27.853-19.436h329.574c16.404 0.010 29.691 13.297 29.691 29.716v0zM457.805 847.99c9.042 0 16.609-6.717 19.139-15.524-12.877 0.799-25.636 0.824-38.267 0.041 2.534 8.786 10.092 15.483 19.128 15.483z" />
<glyph unicode="&#xe914;" glyph-name="warn-wait1" d="M731.080 556.401h-86.728c4.076-80.968 8.233-161.7 12.339-242.499h61.998c4.132 80.855 8.238 161.572 12.39 242.499zM686.254 198.369c25.743 0.041 43.448 17.5 43.597 42.962 0.133 25.677-17.679 43.745-43.090 43.689-25.349-0.046-43.674-18.412-43.592-43.776 0.056-25.277 17.823-42.957 43.085-42.875zM687.488 106.148c-73.503 0-142.602 28.621-194.58 80.584-51.978 51.968-80.599 121.068-80.599 194.555 0 73.508 28.626 142.612 80.599 194.58s121.073 80.589 194.58 80.589c73.492 0 142.587-28.621 194.555-80.594 51.973-51.973 80.604-121.073 80.604-194.58 0-73.492-28.631-142.587-80.604-194.555-51.973-51.958-121.062-80.579-194.555-80.579zM687.488 609.004c-125.568 0-227.727-102.154-227.727-227.717 0-125.548 102.154-227.686 227.727-227.686 125.553 0 227.702 102.139 227.702 227.686 0 125.568-102.144 227.717-227.702 227.717v0zM478.106 46.618c-26.025 0-47.606 17.213-55.588 40.607h-61.327c9.134-56.428 57.984-100.004 116.915-100.004 58.911 0 107.781 43.576 116.895 100.004h-61.327c-7.951-23.388-29.537-40.607-55.567-40.607v0zM301.471 627.533c-24.059-32.041-36.762-70.149-36.762-110.254v-167.091c-0.015-9.216 7.439-16.707 16.655-16.722 0.020 0 0.041 0 0.067 0 9.247 0 16.696 7.48 16.696 16.722v167.091c0 32.824 10.399 64.005 30.044 90.173 5.596 7.419 4.106 17.874-3.261 23.393-7.45 5.555-17.905 4.024-23.439-3.313zM453.632 137.846c0 16.43-13.292 29.706-29.737 29.706h-263.306c23.368 32.394 47.442 77.865 51.052 131.123 3.154 46.879 2.534 123.525 2.089 179.507l-0.312 42.803c0 73.16 31.058 142.94 85.243 191.519 52.613 47.201 119.613 69.038 189.594 61.548 56.151-6.047 107.279-32.307 147.743-75.899 11.213-12.129 30.024-12.749 41.964-1.562 12.052 11.146 12.759 29.947 1.577 41.948-38.395 41.354-86.426 70.4-138.332 85.115v4.301c0 44.6-35.727 80.855-79.708 80.855s-79.734-36.255-79.734-80.855v-4.091c-44.774-12.268-86.62-34.683-122.793-67.169-66.719-59.802-104.96-145.731-104.96-235.709l0.297-43.325c0.476-55.004 1.096-130.324-1.966-174.925-5.412-80.077-76.529-141.624-77.23-142.269-9.513-8.049-12.928-21.222-8.632-32.896 4.301-11.663 15.416-19.42 27.843-19.42h329.58c16.435 0.005 29.732 13.297 29.732 29.696v0zM461.496 849.418c9.052 0 16.609-6.717 19.139-15.524-12.872 0.783-25.631 0.814-38.282 0.041 2.565 8.786 10.127 15.483 19.144 15.483z" />
<glyph unicode="&#xe915;" glyph-name="warn-wait" d="M731.080 556.401h-86.728c4.076-80.968 8.233-161.7 12.339-242.499h61.998c4.132 80.855 8.238 161.572 12.39 242.499zM686.254 198.369c25.743 0.041 43.448 17.5 43.597 42.962 0.133 25.677-17.679 43.745-43.090 43.689-25.349-0.046-43.674-18.412-43.592-43.776 0.056-25.277 17.823-42.957 43.085-42.875zM687.488 106.148c-73.503 0-142.602 28.621-194.58 80.584-51.978 51.968-80.599 121.068-80.599 194.555 0 73.508 28.626 142.612 80.599 194.58s121.073 80.589 194.58 80.589c73.492 0 142.587-28.621 194.555-80.594 51.973-51.973 80.604-121.073 80.604-194.58 0-73.492-28.631-142.587-80.604-194.555-51.973-51.958-121.062-80.579-194.555-80.579zM687.488 609.004c-125.568 0-227.727-102.154-227.727-227.717 0-125.548 102.154-227.686 227.727-227.686 125.553 0 227.702 102.139 227.702 227.686 0 125.568-102.144 227.717-227.702 227.717v0zM478.106 46.618c-26.025 0-47.606 17.213-55.588 40.607h-61.327c9.134-56.428 57.984-100.004 116.915-100.004 58.911 0 107.781 43.576 116.895 100.004h-61.327c-7.951-23.388-29.537-40.607-55.567-40.607v0zM301.471 627.533c-24.059-32.041-36.762-70.149-36.762-110.254v-167.091c-0.015-9.216 7.439-16.707 16.655-16.722 0.020 0 0.041 0 0.067 0 9.247 0 16.696 7.48 16.696 16.722v167.091c0 32.824 10.399 64.005 30.044 90.173 5.596 7.419 4.106 17.874-3.261 23.393-7.45 5.555-17.905 4.024-23.439-3.313zM453.632 137.846c0 16.43-13.292 29.706-29.737 29.706h-263.306c23.368 32.394 47.442 77.865 51.052 131.123 3.154 46.879 2.534 123.525 2.089 179.507l-0.312 42.803c0 73.16 31.058 142.94 85.243 191.519 52.613 47.201 119.613 69.038 189.594 61.548 56.151-6.047 107.279-32.307 147.743-75.899 11.213-12.129 30.024-12.749 41.964-1.562 12.052 11.146 12.759 29.947 1.577 41.948-38.395 41.354-86.426 70.4-138.332 85.115v4.301c0 44.6-35.727 80.855-79.708 80.855s-79.734-36.255-79.734-80.855v-4.091c-44.774-12.268-86.62-34.683-122.793-67.169-66.719-59.802-104.96-145.731-104.96-235.709l0.297-43.325c0.476-55.004 1.096-130.324-1.966-174.925-5.412-80.077-76.529-141.624-77.23-142.269-9.513-8.049-12.928-21.222-8.632-32.896 4.301-11.663 15.416-19.42 27.843-19.42h329.58c16.435 0.005 29.732 13.297 29.732 29.696v0zM461.496 849.418c9.052 0 16.609-6.717 19.139-15.524-12.872 0.783-25.631 0.814-38.282 0.041 2.565 8.786 10.127 15.483 19.144 15.483z" />
</font>
</defs>
</svg>
